<svg width="35" height="24" viewBox="0 0 35 24" fill="none" xmlns="http://www.w3.org/2000/svg"><path fill-rule="evenodd" clip-rule="evenodd" d="M28.062 0c-.581 0-1.052.483-1.052 1.078v20.767h-2.161V9.815c0-.595-.471-1.077-1.052-1.077h-4.265c-.58 0-1.052.483-1.052 1.078v12.029h-2.16V6.903c0-.595-.472-1.078-1.052-1.078h-4.265c-.58 0-1.052.483-1.052 1.078v14.942H7.79v-7.66c0-.596-.472-1.078-1.053-1.078H2.474c-.581 0-1.052.482-1.052 1.078v7.66h-.37c-.58 0-1.052.482-1.052 1.077S.471 24 1.052 24h32.696c.58 0 1.052-.483 1.052-1.078 0-.595-.471-1.077-1.052-1.077h-.37V1.078c0-.595-.47-1.078-1.052-1.078h-4.264zm3.212 2.155v19.69h-2.16V2.155h2.16zM5.686 15.262v6.583h-2.16v-6.583h2.16zm8.53-7.281v13.864h-2.161V7.98h2.16zm8.529 2.912v10.952h-2.16V10.893h2.16z" fill="#2E0571"/></svg>