<svg width="43" height="22" viewBox="0 0 43 22" fill="none" xmlns="http://www.w3.org/2000/svg"><path d="M39.822 3.294C37.86 1.17 35.093 0 32.03 0c-3.777 0-6.62 2.08-8.612 4.386a26.164 26.164 0 011.777 3.037c1.53-2.106 3.822-4.235 6.835-4.235 4.254 0 7.34 3.286 7.34 7.812s-3.086 7.812-7.34 7.812c-6.08 0-9.066-8.237-9.094-8.318l-.008-.023C22.769 10.043 18.977 0 10.677 0 7.613 0 4.846 1.17 2.883 3.294 1.024 5.306 0 8.044 0 11c0 2.957 1.024 5.694 2.883 7.706C4.846 20.83 7.613 22 10.677 22c3.808 0 6.636-2.027 8.611-4.3a25.089 25.089 0 01-1.77-3.053c-1.51 2.082-3.784 4.165-6.841 4.165-4.254 0-7.34-3.286-7.34-7.812s3.086-7.812 7.34-7.812c5.868 0 9 8.072 9.1 8.335C19.999 12.147 23.634 22 32.029 22c3.063 0 5.83-1.17 7.793-3.294 1.86-2.012 2.884-4.75 2.884-7.706 0-2.957-1.024-5.694-2.884-7.706z" fill="#2E0571"/></svg>