<svg width="35" height="22" viewBox="0 0 35 22" fill="none" xmlns="http://www.w3.org/2000/svg"><path d="M33.715 0H5.245C4.68 0 4.223.47 4.223 1.05v3.534H1.022C.457 4.584 0 5.054 0 5.634V20.95C0 21.53.457 22 1.022 22h28.47c.564 0 1.022-.47 1.022-1.05v-3.534h3.201c.564 0 1.022-.47 1.022-1.05V1.05c0-.58-.458-1.05-1.022-1.05zm-5.244 19.899H2.043V6.685h26.428V19.9zm4.223-4.584h-2.18v-9.68c0-.58-.457-1.05-1.022-1.05H6.266V2.1h26.428v13.214z" fill="#2E0571"/><path d="M15.257 9.168c-2.211 0-4.01 1.85-4.01 4.124 0 2.274 1.799 4.124 4.01 4.124s4.01-1.85 4.01-4.124c0-2.274-1.799-4.124-4.01-4.124zm0 6.147c-1.085 0-1.967-.907-1.967-2.023 0-1.115.882-2.023 1.967-2.023s1.967.908 1.967 2.023c0 1.116-.882 2.023-1.967 2.023zm9.431-3.785c-.564 0-1.022.47-1.022 1.05v1.424c0 .58.458 1.05 1.022 1.05.564 0 1.022-.47 1.022-1.05V12.58c0-.58-.458-1.051-1.022-1.051zm-18.862 0c-.564 0-1.022.47-1.022 1.05v1.424c0 .58.458 1.05 1.022 1.05.564 0 1.022-.47 1.022-1.05V12.58c0-.58-.458-1.051-1.022-1.051z" fill="#2E0571"/></svg>