<svg width="37" height="27" viewBox="0 0 37 27" fill="none" xmlns="http://www.w3.org/2000/svg"><path d="M6 14.636a1.208 1.208 0 011.607.585 1.208 1.208 0 01-.585 1.607l-1.715.8c-.952.365-1.466-.282-1.608-.585a1.208 1.208 0 01.586-1.608l1.714-.8zm.512-12.641c4.4-2.5 9.915-1.368 12.851 2.63 0 0 1.502-.871 1.532-.885 4.552-2.123 9.766-2.688 14.602-1.332.505.134 1.212.807.793 1.681-2.19 4.527-5.854 8.207-10.406 10.33-.03.014-1.663.605-1.663.605 1.044 4.298-1.208 8.6-6.021 11.472-.885.528-1.721-.255-1.799-.787l-1.562-7.303s-1.503.858-2.156-.394l-1.009-2.163-.887.414c-.952.366-1.466-.281-1.608-.585a1.208 1.208 0 01.585-1.607l.886-.409-.99-2.124c-.656-1.228 1.075-1.902 1.075-1.902L6.173 3.774c-.303-.293-.52-1.291.339-1.78zm11.876 21.457c2.351-1.821 4.16-4.508 3.541-7.6l-4.8 1.73 1.259 5.87zm-3.982-7.459l10.499-3.782a19.266 19.266 0 008.483-7.798A19.29 19.29 0 0021.967 5.9l-9.654 5.615 2.093 4.478zm-1.562-7.58l4.41-2.565a7.387 7.387 0 00-8.247-2.366l3.837 4.931zm-8.86 11.009a1.208 1.208 0 011.608.585 1.208 1.208 0 01-.585 1.607l-3.285 1.532c-.952.366-1.466-.282-1.608-.585A1.208 1.208 0 01.7 20.953l3.285-1.531z" fill="#2E0571"/></svg>