<svg xmlns="http://www.w3.org/2000/svg" xmlns:xlink="http://www.w3.org/1999/xlink"><symbol id="arrow-down" viewBox="0 0 12 36"><path d="M11.714 29.288a.903.903 0 01-.002 1.32l-5.03 4.843a.979.979 0 01-1.365 0l-5.03-4.843a.903.903 0 01-.002-1.32 1.003 1.003 0 011.364-.005l.005.005 3.38 3.26V1.656c0-.522.444-.926.97-.926.534 0 .962.412.963.926V32.55l3.387-3.262a.993.993 0 011.36 0z" fill="#fff"/></symbol><symbol id="arrow-right" viewBox="0 0 62 16"><path d="M61.207 8.707a1 1 0 000-1.414L54.843.929a1 1 0 10-1.414 1.414L59.086 8l-5.657 5.657a1 1 0 001.414 1.414l6.364-6.364zM.5 9h60V7H.5v2z" fill="#9F9BAD" fill-opacity=".4"/></symbol><symbol id="inst" viewBox="0 0 18 18"><path fill-rule="evenodd" clip-rule="evenodd" d="M9 4.362A4.643 4.643 0 004.362 9 4.643 4.643 0 009 13.638 4.643 4.643 0 0013.638 9 4.643 4.643 0 009 4.362zm0 7.679a3.044 3.044 0 01-3.041-3.04A3.045 3.045 0 019 5.958 3.045 3.045 0 0112.041 9 3.044 3.044 0 019 12.041z" fill="#fff"/><path d="M13.005 3.35a1.176 1.176 0 011.656 0 1.176 1.176 0 010 1.657 1.18 1.18 0 01-.828.343 1.18 1.18 0 01-.828-.343 1.18 1.18 0 01-.344-.828c0-.309.126-.611.344-.828z" fill="#fff"/><path fill-rule="evenodd" clip-rule="evenodd" d="M13.033 0H4.966A4.973 4.973 0 000 4.967v8.066A4.973 4.973 0 004.967 18h8.066A4.973 4.973 0 0018 13.033V4.967A4.973 4.973 0 0013.033 0zm3.37 13.033a3.374 3.374 0 01-3.37 3.37H4.967a3.374 3.374 0 01-3.37-3.37V4.967a3.374 3.374 0 013.37-3.37h8.066a3.374 3.374 0 013.37 3.37v8.066z" fill="#fff"/></symbol><symbol id="link" viewBox="0 0 18 18"><path d="M17.182 0h-6.545a.818.818 0 000 1.636h4.57l-8.422 8.422a.818.818 0 101.157 1.157l8.422-8.422v4.57a.818.818 0 001.636 0V.819A.818.818 0 0017.182 0z" fill="#29006C"/><path d="M13.91 8.182a.818.818 0 00-.82.818v7.364H1.637V4.909H9a.818.818 0 000-1.636H.818A.818.818 0 000 4.09v13.09c0 .453.366.819.818.819H13.91a.818.818 0 00.818-.818V9a.818.818 0 00-.818-.818z" fill="#29006C"/></symbol><symbol id="play" viewBox="0 0 12 16"><path d="M11.645 7.686L.597.067A.383.383 0 000 .381v15.238a.381.381 0 00.597.314l11.048-7.62a.38.38 0 000-.627z" fill="#fff"/></symbol><symbol id="tel" viewBox="0 0 15 14"><path d="M14.002 11.049a.677.677 0 01-.207.593L11.822 13.6a1.112 1.112 0 01-.348.252 1.446 1.446 0 01-.423.133l-.089.008c-.05.005-.113.007-.192.007-.188 0-.492-.032-.913-.096-.42-.065-.934-.223-1.542-.475s-1.298-.63-2.069-1.135c-.771-.504-1.592-1.196-2.462-2.076a16.25 16.25 0 01-1.72-1.957A13.948 13.948 0 01.966 6.533a9.306 9.306 0 01-.622-1.439c-.139-.43-.233-.8-.282-1.112a3.673 3.673 0 01-.06-.734c.01-.178.015-.277.015-.297.02-.138.065-.279.134-.422.069-.144.153-.26.252-.349L2.375.208A.653.653 0 012.85 0c.128 0 .242.037.341.111.099.074.183.166.252.275l1.587 3.01a.722.722 0 01.074.52.924.924 0 01-.252.474l-.727.727a.247.247 0 00-.052.096.366.366 0 00-.022.111c.04.208.129.445.267.712.119.237.302.526.549.868.247.34.598.734 1.053 1.179.445.454.84.808 1.186 1.06s.636.437.868.556c.232.119.41.19.534.215l.185.037c.02 0 .052-.007.097-.022a.248.248 0 00.096-.052l.845-.86a.908.908 0 01.623-.237c.168 0 .302.03.4.089h.015l2.863 1.69c.207.129.33.292.37.49z" fill="#fff"/></symbol><symbol id="text-circle" viewBox="0 0 132 131"><path d="M.07 60.715l8.867.213-.07 1.206-7.874-.213-.07 3.192 5.248.567c.851.142 1.49.355 1.986.851.425.426.71.993.638 1.632-.07.07 0 .142 0 .142v.141s-.07.071 0 .142h-.993v-.142c0-.425-.142-.85-.425-1.135-.284-.283-.71-.425-1.206-.496L0 66.177l.07-5.462zm3.618-7.731l6.242.993-.142.993-4.681-.71 4.185 3.902-.213 1.064-6.242-.993.213-1.064 4.681.709-4.185-3.901.142-.993zm2.057-4.469c-.07.213-.07.497 0 .71.071.212.142.425.284.709s.284.425.567.567c.213.213.497.355.852.426.354.07.638.07.922.07.283 0 .567-.141.78-.212.284-.142.425-.284.638-.496.213-.213.284-.426.355-.639a.782.782 0 000-.567c-.071-.213-.071-.355-.142-.568a1.09 1.09 0 00-.284-.425l-.425-.426.283-.993c.284.142.497.355.78.639.213.212.355.496.497.78.142.283.213.638.213.922.07.355 0 .71-.142.993-.07.354-.284.71-.496 1.064-.284.283-.568.567-.852.71a4.108 4.108 0 01-1.205.354c-.426 0-.852 0-1.277-.142-.426-.142-.851-.284-1.135-.568-.355-.212-.567-.567-.78-.922-.213-.354-.284-.709-.355-1.063-.07-.355-.07-.78.071-1.206.071-.355.213-.639.426-.852l.709-.709c.284-.142.567-.283.922-.354.355-.071.638-.071.922-.071l-.284.993c-.141 0-.354.07-.567.142-.213.07-.284.141-.497.212l-.425.426c-.213.213-.284.284-.355.496zm.213-3.901l1.844-4.681.922.355-.709 1.844 4.965 1.986-.426.993-4.965-1.844-.709 1.844-.922-.497zM9.434 36.6c.141-.284.425-.568.638-.78.213-.214.496-.355.78-.497.284-.142.568-.142.851-.142.284 0 .568.142.78.213l3.76 1.915-.355.638-.78-.071c.07.213.142.426.142.568 0 .141 0 .425-.071.638-.071.213-.142.567-.284.851-.07.355-.284.567-.496.78-.213.213-.426.284-.71.426-.213.07-.496.07-.709.142-.284 0-.497-.071-.71-.142-.283-.142-.496-.355-.638-.497-.212-.213-.212-.496-.283-.85-.071-.355.07-.781.142-1.278.141-.567.425-1.135.78-1.773l-.284-.142c-.284-.141-.567-.141-.922-.07-.284.141-.567.283-.71.709-.283.142-.283.425-.212.638.07.213.213.497.425.71l-.567.992-.567-.567c-.213-.213-.284-.426-.284-.71 0-.283-.071-.496 0-.85 0-.284.142-.568.284-.852zm4.61 2.907c.142-.283.213-.496.213-.78v-.71c-.071-.212-.142-.425-.284-.567l-.355-.354-.496-.213c-.284.567-.497 1.064-.639 1.348-.07.354-.212.638-.212.922 0 .284.07.496.212.638l.355.355c.213.07.426.142.71 0 .141-.142.354-.355.496-.639zm.638-11.419l5.249 3.546-.567.851-3.902-2.624 2.128 5.249-.567.851-5.249-3.547.568-.85 3.9 2.624-2.198-5.178.638-.922zm-2.34 1.631c-.213.355-.568.568-.993.71-.355.07-.851 0-1.277-.142l.426-.71c.212.071.425.142.638.071.213-.07.425-.142.496-.354.142-.142.142-.426.142-.568 0-.142-.142-.425-.283-.567l.496-.639c.284.284.496.639.638 1.064.071.355-.07.78-.283 1.135zm3.262-2.837l3.263-3.83.78.638-1.276 1.56 4.114 3.405-.639.78-4.114-3.404-1.418 1.419-.71-.568zm10.994-5.178c.071.213.142.426.142.71v.85c0 .284-.142.568-.213.78-.07.214-.283.568-.496.781-.284.284-.638.497-.993.568-.355.07-.78.212-1.206.212-.425 0-.78-.07-1.135-.283-.354-.213-.709-.426-1.064-.78-.354-.355-.567-.71-.78-1.065a8.809 8.809 0 01-.284-1.134c0-.426.071-.78.213-1.064.142-.426.355-.639.639-.922.283-.284.567-.426.922-.639.354-.07.709-.142 1.134-.142.426 0 .71.142 1.135.284.355.213.71.426 1.064.78l.142.142.142.142.142.142-3.263 3.12c.142.143.355.213.639.355.212.071.425.142.709.142s.425 0 .71-.142c.07-.212.283-.283.425-.425.142-.142.283-.284.283-.426.071-.213.142-.284.142-.425 0-.142 0-.284.071-.355v-.284l.78-.922zm-4.468-.78c-.142.142-.284.284-.355.497-.07.212-.142.425-.07.638 0 .284 0 .425.141.71.071.212.213.496.355.638l2.482-2.341c-.496-.355-.922-.497-1.347-.497-.497-.07-.922.071-1.206.355zm10.143-5.604a.782.782 0 01.567 0c.142 0 .355.072.567.143.213.07.355.212.497.496.284.426.426.851.355 1.348a1.741 1.741 0 01-.78 1.206l-2.483 1.773-3.688-5.107 2.411-1.703c.213-.212.426-.283.71-.283.212-.071.496-.071.709 0 .213.07.425.142.638.213.213.07.426.283.497.496.141.142.212.355.283.568 0 .141.071.354 0 .425-.142.142-.212.213-.283.426zm.567 2.412c.142-.142.355-.354.355-.638 0-.284 0-.426-.142-.71l-.213-.212c-.07-.071-.213-.071-.284-.142-.142 0-.283 0-.354.07-.071.072-.213.072-.284.143l-1.49 1.064.994 1.418 1.418-.993zm-4.043-2.482l.922 1.347 1.348-.922c.213-.213.355-.354.425-.567a.552.552 0 00-.141-.568c-.142-.141-.284-.283-.497-.354-.213-.071-.425 0-.638.213l-1.419.85zm8.866-6.597l3.05 5.604-.922.496-1.347-2.482-2.838 1.56 1.277 2.412-.922.496-3.05-5.603.922-.497 1.277 2.27 2.908-1.49-1.277-2.27.922-.496zm7.093-2.979l2.34 5.887-.992.426L44.33 7.66l-1.206 5.604-.993.425-2.34-5.887.992-.425 1.773 4.326L43.763 6.1l.993-.426zm5.887 1.49c.213.07.355.07.497.213.142.141.283.141.425.283.142.142.213.355.284.568.071.213.071.496.071.78-.071.213-.071.496-.284.71-.07.212-.284.425-.567.567-.213.213-.497.354-.851.425a2.51 2.51 0 01-1.774-.07c-.496-.213-.78-.639-.992-1.136l.992-.283c.142.283.284.425.568.567.284.142.567.142.922.071.355-.07.567-.284.78-.496.213-.213.142-.426.142-.71-.07-.212-.213-.354-.497-.496a.904.904 0 00-.85 0l-.568.142-.284-.993.568-.142c.212-.071.496-.213.567-.426.142-.142.142-.425.071-.638-.07-.213-.213-.355-.496-.497a1.209 1.209 0 00-.71 0c-.354.071-.638.213-.78.497-.142.284-.142.425-.142.71l-.993.283c-.142-.568-.07-1.064.213-1.49.284-.425.78-.78 1.419-.993a1.03 1.03 0 01.78-.07c.283 0 .496.07.78.212.213.071.425.284.567.426.142.142.284.425.355.638.071.213.142.426.071.639-.071.212-.071.354-.142.425.071-.07 0 .142-.142.284zm20.853-5.107c0-.284.142-.567.284-.851.142-.284.355-.497.71-.71.283-.141.638-.354.992-.425C73.837 0 74.262 0 74.688 0c.355.07.71.142 1.064.355.355.212.568.425.78.638.213.213.426.567.497.922.07.355.142.71.07 1.064l-1.134-.142c.07-.496-.071-.922-.284-1.277-.213-.354-.638-.496-1.064-.638-.284 0-.496-.07-.71 0-.212.071-.425.142-.566.284l-.426.425c-.142.142-.142.284-.213.497-.07.355.071.638.213.922.213.213.425.426.78.638.355.213.639.355 1.064.497.426.142.78.354 1.064.638.355.213.567.568.71.851.212.355.212.78.141 1.277a3.004 3.004 0 01-.284.851c-.141.284-.354.497-.709.71-.355.212-.638.354-.993.425-.355.071-.78.071-1.277 0-.496-.07-.85-.142-1.205-.355-.355-.212-.639-.354-.852-.709a1.935 1.935 0 01-.496-.922c-.07-.355-.142-.71-.07-1.064l1.134.142c-.071.496 0 .993.284 1.277.283.283.709.567 1.276.567.639.071.993 0 1.348-.213.355-.212.567-.567.638-.922.071-.354-.07-.638-.212-.922-.142-.284-.426-.425-.78-.638a4.89 4.89 0 00-1.065-.497 2.671 2.671 0 01-1.064-.638c-.354-.213-.567-.567-.709-.851-.07-.213-.213-.639-.142-1.135zm9.788 2.837a1.209 1.209 0 00-.709 0 4.889 4.889 0 00-.709.284 1.108 1.108 0 00-.567.567l-.426.851c-.142.284-.071.639-.071.922 0 .284.142.568.213.78.142.284.284.426.496.639.213.213.426.284.639.355.212.07.354.07.567 0 .213-.071.355-.071.567-.142a1.09 1.09 0 00.426-.284c.071-.07.284-.284.355-.496l.993.283c-.142.284-.284.568-.568.851-.212.213-.425.426-.709.568-.284.142-.567.284-.851.284a2.341 2.341 0 01-.993 0c-.355-.071-.71-.284-1.064-.497-.355-.213-.568-.567-.71-.851-.212-.355-.283-.71-.425-1.135 0-.425 0-.851.071-1.348.142-.425.284-.85.496-1.205.213-.355.497-.639.852-.851.354-.213.638-.355 1.135-.426.496-.071.78-.071 1.205.07.355.072.639.214.852.426l.709.71.425.85c.142.285.071.64.142.994l-.993-.284c0-.142-.07-.354-.142-.567-.07-.213-.141-.284-.212-.497l-.426-.425c-.142-.284-.355-.355-.568-.426zm7.093 2.27l-.283-.142c-.426-.142-.851-.142-1.348.07a2.3 2.3 0 00-.922 1.065l-1.135 3.404-.993-.283 2.128-5.958.71.283.07.78c.213-.07.355-.212.497-.212.213-.071.354-.071.638-.071.284 0 .497.07.78.213h.142l-.284.85zm5.391 4.681c-.142.426-.496.78-.78 1.064-.284.284-.638.497-.993.71-.355.212-.78.212-1.064.212-.426 0-.78-.07-1.135-.284-.355-.212-.71-.425-.993-.709-.284-.284-.496-.638-.567-.993-.071-.354-.213-.78-.142-1.135.07-.354.142-.85.283-1.276.142-.426.497-.78.78-1.064.284-.284.639-.497.994-.71.354-.212.78-.212 1.135-.283.354-.071.78.07 1.134.283.355.213.71.426.993.71.284.283.497.638.568.993.07.354.213.78.142 1.135-.071.496-.213.922-.355 1.347zM89.37 9.86a2.185 2.185 0 00-.212.922c0 .284 0 .568.07.78.072.213.213.497.355.639.213.213.355.354.568.425.212.071.425.142.709.142s.496-.07.71-.142c.212-.07.425-.283.638-.496.212-.213.354-.497.496-.78.142-.284.213-.639.213-.922 0-.284 0-.568-.071-.78-.071-.213-.213-.497-.355-.639-.213-.213-.354-.355-.567-.426-.213-.07-.426-.141-.71-.141-.283 0-.496.07-.709.141-.212.071-.425.284-.638.497-.213.213-.355.496-.497.78zm5.107 6.099l-.922-.496 4.327-7.732.922.497-4.327 7.731zm2.483 1.489l-.851-.567 4.752-7.447.851.567-4.752 7.447zm7.589 4.895c-.213.07-.425 0-.567 0-.142 0-.355-.071-.639-.213a1.897 1.897 0 01-.709-.426c-.284-.284-.567-.567-.78-.922-.213-.355-.284-.71-.284-1.135 0-.425.071-.78.213-1.205.142-.426.355-.78.709-1.135.355-.355.639-.639.993-.851a3.72 3.72 0 011.135-.426c.355-.071.78-.071 1.135.142.355.07.709.284.993.567.213.213.426.426.497.639.07.212.212.354.283.567.071.213.142.426.071.638l2.128-2.553.78.638-5.745 6.739-.638-.497.425-.567zm1.703-1.703c.212-.213.354-.496.496-.78.142-.284.142-.567.142-.851 0-.284-.071-.497-.213-.78-.071-.213-.284-.426-.496-.639-.213-.212-.426-.283-.639-.354-.213-.071-.496-.071-.78-.071-.284 0-.567.142-.78.213-.213.07-.497.354-.709.567-.213.213-.355.497-.497.78-.142.284-.142.568-.142.851 0 .284.071.497.213.78.071.213.284.426.496.639.213.213.426.284.639.355.213.07.496.07.78.07.284 0 .567-.141.78-.212.284-.142.497-.355.71-.568zm5.958 5.958c-.355.355-.71.568-1.135.71a3.607 3.607 0 01-1.206.212c-.426 0-.78-.07-1.135-.283-.355-.213-.638-.355-.922-.639-.284-.283-.497-.638-.567-.993-.142-.425-.213-.78-.142-1.134 0-.426.071-.78.283-1.135.213-.355.426-.71.781-1.064a2.773 2.773 0 011.134-.71 3.607 3.607 0 011.206-.212c.426 0 .78.07 1.135.283.355.213.638.355.922.639.284.283.497.638.568.993.141.425.212.78.141 1.135 0 .425-.07.78-.283 1.134-.213.355-.497.78-.78 1.064zm-3.405-3.546c-.213.213-.426.425-.567.71-.142.283-.213.496-.213.78 0 .283 0 .567.071.78.071.212.212.496.354.638.142.142.355.355.568.426.213.07.425.141.709.141s.497-.07.78-.212c.284-.142.568-.284.78-.497.213-.213.426-.425.568-.71.142-.283.213-.496.213-.78 0-.283 0-.567-.071-.78-.071-.212-.213-.496-.355-.638-.142-.142-.355-.355-.567-.425-.213-.072-.426-.142-.71-.142-.283 0-.496.07-.78.212a2.003 2.003 0 00-.78.497zm3.05 8.298l-.497-.638 3.972-5.39.639.922-2.837 3.83 4.468-1.49.426.568-2.908 3.759 4.539-1.419.638.922-6.383 1.986-.497-.638 2.838-3.688-4.398 1.277zm10.639 4.966c.142.283.213.638.213.922 0 .283-.071.638-.142.993-.142.283-.284.567-.567.85-.284.284-.497.497-.851.71l-3.263 1.702-.497-.922 3.263-1.702c.213-.07.426-.284.568-.425.141-.142.212-.355.283-.568.071-.213.142-.425.071-.638-.071-.213-.071-.355-.142-.568-.283-.425-.567-.709-.993-.85-.425-.143-.922-.072-1.347.212l-3.263 1.702-.497-.922 5.604-2.908.354.638-.496.639c.213.07.426.142.496.213.213.07.355.212.497.354.426.142.496.355.709.568zm9.505 32.911l-8.866-.071V68.02l7.873.07v-3.26l-5.249-.425c-.851-.142-1.49-.355-1.915-.78-.426-.426-.709-.994-.638-1.632v-.284s.07-.07 0-.142h.851v.142c0 .426.142.851.425 1.135.284.284.71.426 1.206.496l6.242.568.071 5.32zm-3.476 7.873l-6.242-.851.142-.993 4.611.638-4.185-3.901.142-.993 6.241.851-.141.993-4.611-.638 4.185 3.9-.142.994zm-2.057 4.468a1.208 1.208 0 000-.709 4.984 4.984 0 00-.283-.71 1.108 1.108 0 00-.568-.567c-.213-.212-.567-.283-.851-.425-.284-.142-.638-.071-.922-.071-.284 0-.568.142-.78.213-.284.141-.426.283-.639.496-.212.213-.283.426-.354.638a.782.782 0 000 .568c.071.213.071.355.142.567.07.213.212.355.283.426l.426.425-.284.993c-.284-.142-.496-.354-.78-.496-.213-.213-.426-.426-.568-.71-.141-.283-.283-.567-.212-.922-.071-.354 0-.709.071-.922.071-.354.283-.709.496-1.063.213-.355.568-.568.851-.71.355-.213.71-.284 1.206-.354.426 0 .851 0 1.348.07.425.142.851.284 1.205.497.355.213.639.496.852.851.212.355.354.638.354 1.064.071.355.071.78-.071 1.206-.071.355-.212.638-.425.851l-.71.71-.851.425c-.354.07-.638.07-.993.142l.284-.993c.142 0 .355-.071.567-.142.213-.071.284-.142.497-.213l.426-.425c.141-.284.212-.497.283-.71zm-.071 3.902l-1.702 4.68-.922-.354.709-1.844-5.107-1.844.426-.993 4.965 1.844.709-1.844.922.354zm-3.333 8.156c-.142.284-.355.638-.639.78-.283.142-.496.355-.78.497-.284.142-.567.142-.851.142-.284 0-.567-.142-.78-.213l-3.83-1.844.354-.638.78.07c-.071-.212-.141-.425-.141-.567-.071-.213 0-.426.07-.638.071-.213.071-.497.213-.78.142-.284.284-.568.568-.71.213-.213.425-.284.709-.425.284-.142.426-.142.709-.142.284 0 .497.07.71.141.283.142.496.355.638.497.142.142.213.496.284.851.071.355-.071.78-.142 1.277-.142.567-.426 1.135-.709 1.844l.283.142c.284.142.568.142.922.07.284-.141.639-.354.71-.709.212-.354.212-.638.141-.85a1.873 1.873 0 00-.425-.71l.496-1.064c.213.213.426.284.568.568.213.212.284.425.284.709.07.213.07.496.07.78 0 .284-.07.639-.212.922zm-4.753-2.908c-.141.284-.212.497-.212.78v.71c.071.212.142.425.283.567l.355.355.497.213c.283-.568.496-1.065.567-1.42.071-.354.213-.638.213-.921 0-.284 0-.426-.142-.568-.142-.141-.213-.212-.426-.283-.212-.071-.425-.142-.709 0-.071.07-.284.283-.426.567zm-.425 11.491l-5.32-3.476.568-.851 3.972 2.553-2.199-5.32.567-.85 5.32 3.475-.567.851-3.972-2.553 2.198 5.319-.567.852zm2.27-1.703c.212-.354.567-.567.993-.709.425-.142.78-.07 1.205.07l-.425.71c-.213-.071-.426-.142-.639-.071-.212.071-.425.142-.496.355-.071.213-.142.425-.071.638.071.213.142.426.284.568l-.426.709a2.668 2.668 0 01-.638-1.064c-.071-.496 0-.851.213-1.206zm-3.121 2.979l-3.121 3.83-.78-.638 1.276-1.56-4.184-3.334.638-.78 4.185 3.333 1.205-1.489.781.638zm-10.994 5.32c-.071-.213-.142-.426-.213-.78-.071-.355-.071-.497 0-.851 0-.284.142-.568.213-.781a2.4 2.4 0 01.496-.78c.284-.284.639-.496.922-.638.426-.142.781-.213 1.064-.213a3.6 3.6 0 011.206.213c.426.142.709.425 1.064.78.355.355.567.709.78 1.064.213.355.213.78.284 1.135 0 .425-.071.78-.142 1.135-.071.354-.284.709-.567.993-.284.283-.568.425-.922.638-.284.142-.71.142-1.064.213-.426 0-.781-.071-1.135-.284-.426-.142-.71-.425-1.064-.78l-.142-.142-.142-.142-.142-.142 3.121-3.262c-.142-.142-.355-.213-.638-.355-.213-.071-.497-.071-.71-.142-.283 0-.496.071-.709.142-.213.071-.354.213-.567.426-.142.141-.284.283-.284.425-.071.213-.142.284-.142.426v.709l-.567.993zm4.539.709c.142-.142.213-.354.355-.496.071-.213.142-.426.071-.639 0-.283-.071-.496-.142-.709-.071-.213-.213-.496-.355-.638l-2.34 2.482c.496.355.922.497 1.347.497.426-.142.78-.213 1.064-.497zm-10.143 5.745a.782.782 0 01-.567 0c-.142 0-.355-.07-.567-.141-.213-.071-.355-.213-.497-.497-.284-.425-.426-.851-.355-1.348.071-.496.284-.851.78-1.205l2.483-1.774 3.759 5.036-2.269 1.703c-.213.212-.426.283-.639.354a1.207 1.207 0 01-.709 0l-.638-.212a.858.858 0 01-.497-.497c-.142-.142-.213-.355-.284-.567 0-.142-.071-.355 0-.426-.071-.071 0-.284 0-.426zm3.547 0l-.993-1.276-1.277.993c-.213.213-.355.354-.426.567-.07.213 0 .426.142.568.142.142.284.283.497.354.213.071.425 0 .638-.213l1.419-.993zm-4.114-2.411c-.142.142-.355.355-.355.638 0 .284 0 .426.142.71l.213.212c.07.071.213.071.355.071.141 0 .283 0 .354-.071.071-.071.213-.071.284-.142l1.489-1.063-.993-1.419-1.49 1.064zm-4.611 9.15l-3.12-5.533.922-.496 1.347 2.34 2.767-1.631-1.348-2.341.922-.496 3.12 5.532-.921.497-1.277-2.27-2.766 1.632 1.277 2.269-.923.497zm-7.021 3.05l-2.412-5.816.993-.426 1.773 4.327 1.135-5.533.993-.425 2.412 5.816-.993.425-1.774-4.326-1.205 5.603-.922.355zm-3.405.425c-.07.213-.213.355-.355.497l-.496.496c-.142.142-.426.284-.78.355-.426.142-.78.071-1.206.071a4.682 4.682 0 01-1.064-.355c-.355-.213-.639-.496-.922-.78-.213-.355-.426-.709-.568-1.135-.141-.425-.212-.922-.141-1.277 0-.425.141-.851.283-1.134.213-.355.426-.71.71-.852.283-.283.709-.425.992-.567.355-.071.568-.142.852-.142.283 0 .496.071.638.071.213.071.426.142.567.284l-.78-2.908.993-.284 2.34 8.299-.78.212-.283-.851zm-.496-2.34c-.072-.355-.213-.639-.426-.852l-.568-.567c-.283-.142-.496-.213-.709-.284a1.026 1.026 0 00-.78.071c-.213.071-.496.213-.638.355-.213.213-.355.355-.497.638-.142.284-.213.497-.213.78 0 .284 0 .568.071.923.071.354.213.638.426.851l.567.567c.284.142.497.213.71.284.283 0 .496.071.78-.071.212-.071.496-.213.638-.355.213-.213.355-.354.497-.638.142-.284.212-.497.212-.78.071-.355-.07-.639-.07-.922zm-28.017 5.461c-.071.355-.142.568-.355.78-.213.213-.426.426-.78.639-.284.142-.568.283-1.064.354-.497.071-.78.071-1.135 0s-.78-.212-.993-.425c-.355-.213-.568-.426-.71-.71-.141-.283-.354-.638-.425-.993-.07-.354-.07-.638-.07-1.063l1.063.212c-.07.497-.07.922.213 1.348.213.355.567.567.993.709.213.071.496.071.71 0l.638-.213a.637.637 0 00.425-.425.768.768 0 00.213-.497c.07-.354 0-.709-.213-.922-.213-.212-.425-.425-.78-.638-.355-.213-.639-.355-.993-.567-.355-.213-.71-.426-.993-.71-.284-.283-.568-.567-.71-.851-.212-.355-.212-.78-.141-1.277.07-.354.212-.638.425-.851.213-.213.426-.425.78-.638.355-.213.568-.284.994-.284.425 0 .78-.071 1.205.071.426.142.851.284 1.135.426.284.142.568.425.851.709.142.284.355.638.426.993.07.355 0 .709 0 1.135l-1.064-.213c.07-.496 0-.993-.213-1.348-.213-.354-.71-.567-1.277-.709-.567-.142-1.063-.071-1.418.142a1.392 1.392 0 00-.639.922c-.07.355 0 .709.213.922.213.213.426.426.78.638.355.213.639.355.994.568.354.213.709.425.992.709.284.284.568.568.71.851.213.213.284.71.213 1.206zm-9.647-3.546c.213.071.497.071.78.071.284 0 .497-.071.71-.284.283-.142.425-.284.638-.497.213-.212.355-.496.426-.851.07-.354.142-.567.07-.922-.07-.354-.07-.496-.212-.78-.071-.213-.284-.426-.497-.638-.212-.213-.425-.284-.638-.355-.213-.071-.355-.071-.638-.071-.284 0-.355.071-.568.142a1.09 1.09 0 00-.425.284l-.426.425-.993-.284c.142-.283.355-.496.638-.78.284-.283.497-.354.78-.496.284-.142.639-.213.923-.213.283 0 .638.071.993.142.425.142.709.284.993.567.283.284.567.568.638.922.071.355.284.71.284 1.135 0 .426 0 .851-.213 1.348-.142.425-.355.78-.638 1.206-.284.283-.568.567-.922.78-.355.213-.71.284-1.064.354-.355.071-.78.071-1.135-.141-.355-.071-.639-.213-.851-.426-.213-.213-.426-.426-.568-.709-.142-.284-.284-.568-.355-.922-.07-.355-.07-.639-.07-.922l.993.283c0 .142.07.355.07.497.071.213.071.354.213.496.142.142.213.355.426.426l.638.213zm-6.809-2.696l.284.142c.496.213.922.213 1.276 0 .426-.142.78-.496.994-.993l1.418-3.262.993.425-2.411 5.816-.71-.283v-.71c-.213.071-.425.142-.567.142-.355-.071-.568 0-.851 0-.284 0-.497-.071-.78-.213h-.142l.496-1.064zm-5.107-5.106c.284-.426.497-.781.851-.994a2.68 2.68 0 011.064-.638c.426-.142.71-.142 1.135-.142.426 0 .71.142 1.135.284.355.213.638.497.922.78.284.284.426.71.497 1.064.07.355.07.78.07 1.206 0 .426-.141.851-.425 1.277-.284.425-.497.78-.78 1.064a2.68 2.68 0 01-1.064.638c-.355.071-.78.213-1.135.142-.426 0-.71-.142-1.135-.284a6.662 6.662 0 01-.993-.851c-.284-.284-.425-.709-.496-1.064-.071-.355-.071-.78-.071-1.206 0-.425.142-.851.425-1.276zm4.185 2.34c.142-.284.284-.567.284-.851v-.851c-.071-.213-.213-.497-.284-.709l-.496-.497c-.142-.142-.497-.213-.78-.213-.285 0-.497.071-.71.142a1.89 1.89 0 00-.71.426c-.212.212-.425.425-.567.709-.142.284-.283.567-.283.851v.851c0 .284.212.497.283.71.071.212.355.354.497.496.212.071.425.142.709.142s.496-.071.78-.071c.284-.142.497-.213.71-.426.283-.141.425-.425.567-.709zm-4.61-6.454l.85.567-4.822 7.377-.852-.568 4.824-7.376zm-2.412-1.703l.851.568-5.178 7.164-.85-.568 5.177-7.164zm-7.306-5.319c.213-.071.426 0 .639.071l.638.212c.213.071.426.284.638.497.284.284.497.638.639.922.142.426.213.78.284 1.135 0 .425-.071.78-.284 1.135-.142.425-.426.709-.71 1.135-.354.354-.709.567-1.063.78-.355.213-.71.283-1.135.283-.426 0-.78-.07-1.135-.141-.426-.142-.71-.284-.993-.568-.213-.213-.426-.425-.497-.638l-.212-.639c-.071-.212 0-.425-.071-.638l-2.412 2.27-.78-.78 6.1-6.384.567.567-.213.781zm-1.773 1.631c-.213.213-.354.497-.496.78-.142.284-.142.568-.213.78 0 .284.07.497.142.71.07.213.213.496.496.638.213.213.426.284.639.355.212.071.496.071.78.071.284 0 .496-.071.78-.213.284-.142.567-.284.71-.568.141-.283.354-.496.496-.78.142-.283.142-.567.213-.78 0-.284-.071-.496-.142-.709-.142-.142-.284-.426-.426-.568-.213-.212-.425-.283-.638-.354-.213-.071-.497-.071-.78-.071-.284 0-.497.071-.78.213-.284.141-.568.283-.78.496zm-5.461-6.313c.354-.354.78-.496 1.205-.638a3.6 3.6 0 011.206-.213c.426 0 .71.142 1.135.284.355.213.71.425.922.78.284.284.426.709.567.993.072.355.142.709.072 1.206a3.71 3.71 0 01-.426 1.135c-.213.354-.497.638-.851.993-.355.354-.78.496-1.206.638-.426.142-.78.213-1.135.142-.425 0-.71-.142-1.135-.284-.354-.212-.71-.425-.922-.78-.284-.284-.425-.709-.496-1.064-.071-.354-.142-.709-.071-1.206.07-.496.07-.638.283-.993.142-.425.426-.709.852-.993zm3.05 3.76c.212-.213.425-.426.567-.71.142-.283.213-.496.284-.709 0-.284.07-.496-.071-.78-.071-.213-.142-.426-.355-.639-.142-.141-.355-.354-.567-.425-.213-.071-.497-.213-.71-.142-.212.071-.567 0-.85.142l-.852.425c-.284.142-.425.426-.567.71-.142.283-.213.496-.284.709 0 .284-.071.497.07.78.072.213.143.426.355.639.213.212.355.354.568.425.213.071.496.213.78.213.284 0 .568 0 .851-.142.213-.213.497-.355.78-.496zm-2.483-8.583l.426.71-4.256 5.106-.568-.993 3.05-3.617-4.54 1.135-.354-.638 3.121-3.547-4.681 1.277-.568-.993 6.455-1.49.425.71-3.12 3.546 4.61-1.206zM7.731 90.93a2.184 2.184 0 01-.213-.921c0-.284.071-.639.213-.922.142-.284.284-.568.568-.851.283-.284.567-.426.922-.639l3.333-1.49.426.994-3.334 1.49c-.212.07-.425.283-.567.425-.142.142-.284.283-.355.496-.07.213-.142.426-.142.568 0 .142 0 .425.142.567.213.497.497.78.922.922.426.142.851.142 1.348-.07l3.334-1.49.425.993-5.816 2.553-.284-.709.568-.568c-.213-.07-.355-.212-.568-.283-.142-.142-.354-.213-.425-.426-.071-.213-.355-.354-.497-.638z" fill="#fff"/></symbol><symbol id="vk" viewBox="0 0 20 11"><path d="M19.178 9.934a1.314 1.314 0 00-.066-.125c-.334-.603-.973-1.342-1.917-2.219l-.02-.02-.01-.01-.01-.01h-.01c-.428-.408-.7-.683-.813-.823-.208-.268-.255-.539-.14-.813.08-.208.38-.646.902-1.315.275-.355.492-.64.653-.853 1.158-1.54 1.66-2.523 1.506-2.952l-.06-.1c-.04-.06-.144-.115-.311-.165-.168-.05-.382-.059-.643-.025l-2.89.02a.375.375 0 00-.201.005l-.131.03-.05.025-.04.03a.446.446 0 00-.11.105.69.69 0 00-.1.176c-.316.81-.674 1.563-1.075 2.259a21.62 21.62 0 01-.683 1.079 5.185 5.185 0 01-.522.672c-.14.144-.267.26-.381.346-.114.088-.2.124-.261.111a7.547 7.547 0 01-.17-.04.668.668 0 01-.227-.246 1.102 1.102 0 01-.115-.392 4.316 4.316 0 01-.035-.406 8.508 8.508 0 01.005-.482c.007-.208.01-.348.01-.422 0-.254.005-.53.015-.828l.025-.707c.007-.174.01-.359.01-.553 0-.194-.012-.346-.035-.456a1.556 1.556 0 00-.105-.322.54.54 0 00-.206-.24 1.16 1.16 0 00-.336-.136c-.355-.08-.807-.124-1.356-.13-1.244-.014-2.044.066-2.399.24-.14.074-.267.174-.381.301-.12.148-.137.228-.05.241.401.06.685.204.853.432l.06.12c.047.087.094.241.14.462.047.221.078.465.09.733a7.68 7.68 0 010 1.255c-.033.348-.064.619-.094.813a1.628 1.628 0 01-.256.692.173.173 0 01-.05.05.752.752 0 01-.272.05c-.093 0-.207-.046-.341-.14a2.409 2.409 0 01-.416-.386 5.167 5.167 0 01-.487-.688 12 12 0 01-.563-1.044l-.16-.291c-.1-.187-.238-.46-.412-.818a15.78 15.78 0 01-.461-1.04.662.662 0 00-.241-.32l-.05-.03a.687.687 0 00-.161-.086 1.065 1.065 0 00-.231-.065l-2.75.02C.362.503.17.567.07.693L.03.755a.325.325 0 00-.03.16.8.8 0 00.06.272c.402.943.838 1.853 1.31 2.73.472.877.882 1.583 1.23 2.118.348.535.702 1.04 1.064 1.516.361.475.6.78.718.913.117.134.209.234.276.301l.25.241c.161.16.397.353.708.577.312.225.656.445 1.034.663.378.217.818.395 1.32.532.502.137.99.192 1.466.166h1.154c.235-.02.412-.094.532-.221l.04-.05a.667.667 0 00.076-.186c.023-.084.035-.176.035-.276a3.314 3.314 0 01.065-.778c.05-.23.107-.405.17-.522a1.283 1.283 0 01.387-.441.652.652 0 01.08-.036c.161-.053.35-.001.568.156.217.157.421.352.612.582.19.231.42.49.688.778.268.288.502.502.702.643l.201.12c.134.08.308.154.522.221.214.067.401.084.562.05l2.57-.04c.254 0 .452-.042.592-.125.14-.084.224-.176.251-.276a.777.777 0 00.005-.342 1.263 1.263 0 00-.07-.266z" fill="#fff"/></symbol></svg>