<svg width="32" height="29" viewBox="0 0 32 29" fill="none" xmlns="http://www.w3.org/2000/svg"><path fill-rule="evenodd" clip-rule="evenodd" d="M3.616.75C2.04.75.75 2 .75 3.55v17.23c0 1.55 1.29 2.8 2.866 2.8h7.366L9.95 26.597H7.208c-.602 0-1.099.477-1.099 1.077s.497 1.077 1.1 1.077h17.667c.602 0 1.1-.477 1.1-1.077s-.498-1.077-1.1-1.077h-2.742l-1.031-3.015h7.366c1.575 0 2.866-1.251 2.866-2.8V3.55c0-1.55-1.29-2.8-2.866-2.8H3.616zm-.668 2.8c0-.351.294-.646.668-.646h24.853c.373 0 .668.295.668.646v14.43h-3.162v-2.369c0-.6-.497-1.076-1.099-1.076h-1.215c-.063-.16-.13-.32-.203-.476l.856-.835a1.062 1.062 0 000-1.527l-2.5-2.436a1.11 1.11 0 00-.774-.314c-.29 0-.569.112-.775.314l-.86.84a8.196 8.196 0 00-.497-.202v-1.18c0-.6-.497-1.077-1.099-1.077h-3.534c-.601 0-1.098.477-1.098 1.077V9.9a8.222 8.222 0 00-.496.201l-.861-.84a1.111 1.111 0 00-1.55 0l-.049.048-2.45 2.39a1.062 1.062 0 000 1.526l.856.835c-.073.157-.14.315-.203.476H7.208c-.602 0-1.099.477-1.099 1.076v2.37H2.948V3.55zm12.426 7.136v-.89h1.336v.89c0 .127.023.249.064.362.12.33.402.59.76.68.53.135 1.042.342 1.521.618.43.247.977.18 1.331-.165l.654-.638.94.918-.645.63a1.06 1.06 0 00-.17 1.312 5.7 5.7 0 01.632 1.48c.126.477.566.806 1.063.806h.918v1.292h-3.15c.03-.213.047-.43.047-.646 0-2.5-2.083-4.524-4.633-4.524s-4.632 2.024-4.632 4.524c0 .217.016.433.047.646h-3.15v-1.293h.918c.497 0 .937-.328 1.063-.805a5.681 5.681 0 01.632-1.48 1.061 1.061 0 00-.17-1.313l-.646-.629.94-.918.654.638.054.049c.354.302.868.35 1.277.116.48-.276.992-.483 1.52-.617a1.08 1.08 0 00.825-1.043zm-1.767 6.649c0-1.302 1.088-2.37 2.435-2.37 1.348 0 2.435 1.069 2.435 2.37 0 .219-.032.436-.093.646H13.7a2.313 2.313 0 01-.092-.646zM2.947 20.78v-.646h26.19v.646c0 .35-.295.646-.668.646H3.616a.658.658 0 01-.668-.646zm9.322 5.815l1.03-3.015h5.486l1.03 3.015H12.27z" fill="#2E0571"/></svg>