<?xml version="1.0" encoding="utf-8"?>
<!-- Generator: Adobe Illustrator 22.1.0, SVG Export Plug-In . SVG Version: 6.00 Build 0)  -->
<svg version="1.1" id="Слой_1" xmlns="http://www.w3.org/2000/svg" xmlns:xlink="http://www.w3.org/1999/xlink" x="0px" y="0px"
	 viewBox="0 0 315 315" style="enable-background:new 0 0 315 315;" xml:space="preserve">
<style type="text/css">
	.st0{fill:#3561EE;}
	.st1{fill:#FDFEFE;}
</style>
<circle class="st0" cx="157.5" cy="157.5" r="157.5"/>
<g>
	<path class="st1" d="M284.6,157.6c0.5,68.7-55.8,127.3-127.6,127C86.4,284.4,28.6,226,30.5,153.9c1.8-66.5,56.3-124,128.2-123.5
		C229.2,30.9,285.1,88.7,284.6,157.6z M128.4,223.7c0.2,1.3,1,1.1,1.5,1.3c30.6,9.1,61.2,18,91.7,27.4c5.7,1.7,9.6,1.6,14.3-2.5
		c23.1-20.4,37.1-45.6,41.7-76.1c0.5-3.4-0.5-4.9-3.9-5.9c-19.2-5.5-38.3-11.3-57.5-16.9c-3.1-0.9-4.5-2.5-5.6-5.4
		c-3-8.2-5.9-16.6-12.1-23.2c-2.7-2.9-5.2-6.1-7.4-9.4c-8.1-12.4-13.8-25.2-7.7-40.6c2.6-6.5-1-13.1-6.9-15.2
		c-6.5-2.4-12.6,0.3-15.9,7.1c-0.8,1.6-1.5,3.3-2,5.1c-4.4,16-2.1,31.3,5.5,45.8c6.1,11.7,8,23.1-0.3,34.6c-0.8,1.1-1.2,2.4-1.7,3.6
		c-6.2,14.2-1.7,32.1,10.1,42.1c6.9,5.8,14.9,8.4,23.6,9.4c1.3,0.2,2.9,0.2,2.6,2.1c-0.2,1.6-1.4,2.2-2.9,2
		c-3.1-0.4-6.3-0.7-9.3-1.6c-27.2-7.5-39.5-37-25.2-61.3c5.1-8.7,4.8-16.8,0.8-25.5c-1-2.2-2.3-3.3-4.8-3.7
		c-7.9-1.1-15.7-2.8-23.6-3.6c-6.3-0.6-12.6-2.1-19-0.8c9,2.8,18,5.5,27.5,5.5c5.8,0,10.9,1.8,14.3,6.7c6.1,8.8,3.4,17.7-7.2,23.9
		c7.1,11.8,7,15-1.9,24.9c-1.5,1.7-0.3,2.2,0.2,3.2c4.4,8.6,3,15.6-4.8,21.4c-2,1.5-1.6,2.6-1.1,4.4c2.6,7.7-0.5,15.4-7.6,18.9
		C132.2,222.4,130.2,223,128.4,223.7z M140.8,145c0.7,0,1.3,0,2,0c7.1,0,11.7-3.9,12.1-10.4c0.5-6.5-3.3-10.9-10.5-12
		c-3.8-0.6-7.6-0.6-11.4-1.1c-12.5-1.9-24.4-6-36.4-9.7c-5.7-1.8-11.3,1.4-13.5,7.1c-2,5.3,0.3,11.8,5.6,13.8
		C105.6,139,122.8,143.7,140.8,145z M132.8,172c12,0,16.7-3.7,16.8-11.2c0-7.6-4.6-11.3-14.1-11.6c-2.8-0.1-5.6-0.3-8.4-0.7
		c-11.8-1.8-23.2-5.2-34.5-8.8c-6.3-2-12.3,0.6-14.5,6.1c-2.3,5.7,0,12.5,5.8,14.6C100.4,166.5,117.5,170.7,132.8,172z M129.8,196.2
		c9,0.4,12.7-1.2,15-6.8c2.3-5.6-0.5-13.3-5.2-13.3c-17.3,0.3-33.7-4.5-50-9.4c-2.3-0.7-4.1-0.5-6,0.7c-4.1,2.6-5.6,6.3-5.2,11
		c0.5,4.8,3.1,8.1,7.6,9.4C100.4,191.9,114.9,195.3,129.8,196.2z M114.4,220.8c6.2,0,13.5-1.3,17-2.8c5.9-2.6,8.5-8.6,6.3-14.3
		c-0.7-1.8-1.4-2.7-3.5-2.8c-12.6-0.7-24.9-2.8-37.2-5.8c-5.7-1.4-12,2.6-13.4,7.7c-1.6,6.4,1.4,12.1,7.8,14.1
		C99.2,219.6,107.3,220.1,114.4,220.8z"/>
	<path class="st0" d="M128.4,223.7c1.8-0.7,3.8-1.4,5.7-2.3c7.1-3.6,10.2-11.2,7.6-18.9c-0.6-1.8-1-2.8,1.1-4.4
		c7.8-5.8,9.2-12.8,4.8-21.4c-0.5-1-1.7-1.5-0.2-3.2c8.9-9.9,9-13.1,1.9-24.9c10.5-6.3,13.3-15.2,7.2-23.9
		c-3.4-4.9-8.5-6.7-14.3-6.7c-9.5,0-18.5-2.7-27.5-5.5c6.4-1.3,12.7,0.2,19,0.8c7.9,0.8,15.7,2.5,23.6,3.6c2.5,0.3,3.8,1.5,4.8,3.7
		c3.9,8.7,4.3,16.8-0.8,25.5c-14.4,24.3-2.1,53.8,25.2,61.3c3,0.8,6.2,1.1,9.3,1.6c1.5,0.2,2.7-0.4,2.9-2c0.3-2-1.3-2-2.6-2.1
		c-8.7-1-16.7-3.5-23.6-9.4c-11.8-10-16.3-27.9-10.1-42.1c0.5-1.2,0.9-2.5,1.7-3.6c8.3-11.5,6.3-22.9,0.3-34.6
		c-7.5-14.5-9.9-29.8-5.5-45.8c0.5-1.7,1.2-3.4,2-5.1c3.2-6.8,9.3-9.5,15.9-7.1c5.8,2.2,9.5,8.7,6.9,15.2
		c-6.1,15.4-0.4,28.2,7.7,40.6c2.2,3.3,4.7,6.5,7.4,9.4c6.2,6.6,9.1,15,12.1,23.2c1.1,2.9,2.5,4.6,5.6,5.4
		c19.2,5.5,38.3,11.4,57.5,16.9c3.4,1,4.5,2.5,3.9,5.9c-4.6,30.5-18.6,55.7-41.7,76.1c-4.6,4.1-8.6,4.2-14.3,2.5
		c-30.5-9.4-61.1-18.3-91.7-27.4C129.3,224.8,128.5,225,128.4,223.7z"/>
	<path class="st0" d="M140.8,145c-18-1.3-35.2-6-52-12.3c-5.3-2-7.6-8.5-5.6-13.8c2.1-5.7,7.7-8.9,13.5-7.1
		c12,3.7,23.9,7.8,36.4,9.7c3.8,0.6,7.6,0.6,11.4,1.1c7.2,1.1,11,5.5,10.5,12c-0.5,6.5-5,10.4-12.1,10.4
		C142.1,145,141.5,145,140.8,145z"/>
	<path class="st0" d="M132.8,172c-15.3-1.3-32.4-5.5-49-11.7c-5.8-2.1-8.1-8.9-5.8-14.6c2.2-5.5,8.2-8,14.5-6.1
		c11.4,3.5,22.7,7,34.5,8.8c2.8,0.4,5.6,0.7,8.4,0.7c9.5,0.3,14.1,4,14.1,11.6C149.5,168.3,144.8,172,132.8,172z"/>
	<path class="st0" d="M129.8,196.2c-14.9-0.9-29.4-4.3-43.8-8.3c-4.6-1.3-7.2-4.6-7.6-9.4c-0.5-4.7,1.1-8.5,5.2-11
		c1.9-1.2,3.7-1.4,6-0.7c16.3,4.9,32.7,9.7,50,9.4c4.7-0.1,7.5,7.7,5.2,13.3C142.5,195,138.8,196.7,129.8,196.2z"/>
	<path class="st0" d="M114.4,220.8c-7.1-0.7-15.2-1.3-23-3.8c-6.3-2.1-9.4-7.8-7.8-14.1c1.3-5.2,7.6-9.1,13.4-7.7
		c12.2,3,24.6,5,37.2,5.8c2,0.1,2.8,1,3.5,2.8c2.2,5.7-0.4,11.7-6.3,14.3C127.9,219.5,120.6,220.8,114.4,220.8z"/>
</g>
</svg>
