<svg viewBox="0 0 64 64" xmlns="http://www.w3.org/2000/svg" fill="#3581fe" width="66" height="67"><path d="m62.22 21c.48-.532.78-1.229.78-2 0-1.654-1.346-3-3-3h-5.5c-.276 0-.5-.224-.5-.5 0-.109.035-.213.1-.3 1.87-2.493 2.9-5.583 2.9-8.7v-.5c0-2.757-2.243-5-5-5-1.103 0-2 .897-2 2v1.725c0 2.49-.97 4.83-2.73 6.591-.586.585-1.247 1.091-1.966 1.501l-5.57 3.183h-6.167c-.191-.595-.504-1.15-.961-1.606-.738-.738-1.719-1.147-2.74-1.168-.409-.935-1.163-1.684-2.127-2.084-.965-.4-2.026-.401-2.978-.03-.735-.708-1.718-1.112-2.761-1.112s-2.026.404-2.763 1.111c-.95-.371-2.012-.369-2.978.03-.964.4-1.718 1.149-2.127 2.084-1.021.021-2.001.43-2.739 1.167-.738.738-1.147 1.719-1.168 2.74-.935.409-1.684 1.163-2.084 2.127-.399.964-.402 2.027-.03 2.978-.707.737-1.111 1.72-1.111 2.763s.404 2.026 1.111 2.763c-.372.951-.369 2.013.03 2.978.4.964 1.149 1.718 2.084 2.127.018.904.357 1.766.943 2.467-4.1 3.909-6.992 8.837-8.375 14.368l-.92 3.678 12.127 9.7v-3.418c0-7.219 1.918-14.302 5.524-20.546.697.555 1.558.883 2.476.883s1.779-.328 2.476-.884c3.606 6.244 5.524 13.327 5.524 20.546v3.418l12.126-9.701-.92-3.678c-1.383-5.531-4.275-10.459-8.375-14.368.586-.7.925-1.563.943-2.466.846-.37 1.525-1.032 1.946-1.867h3.459c.409 0 .806.082 1.182.242l5.49 2.354c.626.268 1.289.404 1.97.404h12.179c1.654 0 3-1.346 3-3 0-.771-.301-1.468-.78-2 .48-.532.78-1.229.78-2s-.301-1.468-.78-2c.48-.532.78-1.229.78-2s-.301-1.468-.78-2zm-50.214 37.924-3.006-2.405v-.889c0-2.83.438-5.63 1.301-8.325l-1.904-.61c-.856 2.672-1.304 5.444-1.37 8.246l-2.901-2.321.608-2.433c1.322-5.287 4.123-9.983 8.1-13.672.348.129.712.207 1.085.234-1.996 2.364-3.609 5.004-4.773 7.875l1.854.751c1.05-2.59 2.498-4.976 4.276-7.125.297.242.619.456.983.607.318.132.648.205.98.251-3.303 6.088-5.114 12.881-5.233 19.816zm27.26-8.737.608 2.433-2.901 2.321c-.066-2.802-.513-5.573-1.37-8.246l-1.904.61c.863 2.695 1.301 5.495 1.301 8.325v.889l-3.006 2.405c-.119-6.935-1.929-13.729-5.233-19.815.332-.046.661-.119.979-.251.365-.151.687-.365.984-.607 1.778 2.149 3.226 4.534 4.276 7.124l1.854-.751c-1.163-2.871-2.777-5.511-4.773-7.875.373-.028.737-.105 1.085-.234 3.977 3.689 6.778 8.385 8.1 13.672zm-5.459-22.108c.386.563.463 1.272.204 1.896-.259.625-.814 1.073-1.485 1.198l-1.007.188.212 1.002c.142.668-.06 1.352-.538 1.83-.478.479-1.163.678-1.83.538l-1.002-.212-.188 1.007c-.125.671-.573 1.226-1.198 1.485s-1.333.183-1.896-.204l-.845-.58-.559.859c-.373.572-.999.914-1.675.914s-1.302-.342-1.675-.914l-.559-.859-.845.58c-.563.387-1.272.463-1.896.204-.625-.259-1.072-.814-1.197-1.485l-.188-1.007-1.002.212c-.667.141-1.352-.059-1.83-.538-.478-.478-.679-1.162-.538-1.83l.212-1.002-1.007-.188c-.671-.125-1.227-.573-1.485-1.198-.259-.624-.182-1.333.204-1.896l.58-.845-.859-.559c-.573-.373-.915-.999-.915-1.675s.342-1.302.914-1.675l.859-.559-.58-.845c-.386-.563-.463-1.272-.204-1.896.259-.625.814-1.073 1.485-1.198l1.007-.188-.212-1.002c-.142-.668.06-1.352.538-1.83s1.162-.68 1.83-.538l1.002.212.188-1.007c.125-.671.573-1.227 1.198-1.485.624-.259 1.333-.182 1.896.204l.845.58.559-.859c.373-.572.999-.914 1.675-.914s1.302.342 1.675.914l.559.859.845-.58c.562-.387 1.271-.464 1.896-.204.625.259 1.073.814 1.198 1.485l.188 1.007 1.002-.212c.667-.142 1.352.06 1.83.538s.679 1.162.538 1.83l-.212 1.002 1.007.188c.671.125 1.227.573 1.485 1.198.259.624.182 1.333-.204 1.896l-.58.845.859.559c.572.373.914.999.914 1.675s-.342 1.302-.914 1.675l-.859.559zm26.193 3.921h-12.179c-.409 0-.806-.082-1.182-.242l-5.49-2.354c-.626-.268-1.289-.404-1.97-.404h-3.038c-.023-.421-.097-.84-.252-1.237.707-.737 1.111-1.72 1.111-2.763s-.404-2.026-1.111-2.763c.372-.951.369-2.013-.03-2.978-.198-.477-.483-.902-.832-1.26h5.239l6.03-3.446c.873-.499 1.677-1.112 2.388-1.824 2.138-2.137 3.316-4.98 3.316-8.004v-1.725c1.654 0 3 1.346 3 3v.5c0 2.687-.888 5.351-2.501 7.501-.322.43-.499.962-.499 1.499 0 1.378 1.122 2.5 2.5 2.5h5.5c.551 0 1 .449 1 1s-.449 1-1 1h-5v2h5c.551 0 1 .449 1 1s-.449 1-1 1h-5v2h5c.551 0 1 .449 1 1s-.449 1-1 1h-5v2h5c.551 0 1 .449 1 1s-.449 1-1 1z"/><path d="m22 30c2.757 0 5-2.243 5-5s-2.243-5-5-5-5 2.243-5 5 2.243 5 5 5zm0-8c1.654 0 3 1.346 3 3s-1.346 3-3 3-3-1.346-3-3 1.346-3 3-3z"/><path d="m22 32c-3.86 0-7-3.14-7-7 0-1.562.51-3.045 1.475-4.287l-1.579-1.227c-1.24 1.597-1.896 3.503-1.896 5.514 0 4.962 4.038 9 9 9 2.011 0 3.917-.656 5.514-1.896l-1.227-1.579c-1.242.965-2.725 1.475-4.287 1.475z"/><path d="m22 16c-2.011 0-3.917.656-5.514 1.896l1.227 1.579c1.242-.965 2.725-1.475 4.287-1.475 3.86 0 7 3.14 7 7 0 1.562-.51 3.045-1.475 4.287l1.579 1.227c1.24-1.597 1.896-3.503 1.896-5.514 0-4.962-4.038-9-9-9z"/></svg>