<svg xmlns="http://www.w3.org/2000/svg" xmlns:xlink="http://www.w3.org/1999/xlink"  width="173.7272767397265" height="302.6528925098737">
	<path d="M174.08608636474608,37.5485537648201 v12.854 h-49.808 V37.5485537648201 H174.08608636474608 zM153.19908636474608,65.5625537648201 h-28.921 v12.854 h28.921 V65.5625537648201 zM124.27808636474609,106.4305537648201 h49.808 V93.5775537648201 h-49.808 V106.4305537648201 zM153.19908636474608,121.5985537648201 h-28.921 v12.854 h28.921 V121.5985537648201 zM124.27808636474609,162.4665537648201 h49.808 v-12.854 h-49.808 V162.4665537648201 zM132.0420863647461,235.7065537648201 c0,35.881 -29.191,65.072 -65.072,65.072 s-65.072,-29.191 -65.072,-65.072 c0,-23.252 12.211,-44.384 32.134,-56.074 V32.1115537648201 C34.0330863647461,13.9485537648201 48.80808636474609,-0.8264462351799011 66.9700863647461,-0.8264462351799011 s32.938,14.775 32.938,32.938 v147.522 C119.83108636474608,191.3105537648201 132.0420863647461,212.4485537648201 132.0420863647461,235.7065537648201 zM119.18808636474608,235.7065537648201 c0,-19.73 -10.964,-37.565 -28.619,-46.53 l-3.515,-1.787 V32.1175537648201 c0,-11.08 -9.01,-20.084 -20.084,-20.084 c-11.073,0 -20.084,9.004 -20.084,20.084 v155.272 l-3.515,1.787 c-17.655,8.972 -28.619,26.806 -28.619,46.53 c0,28.792 23.426,52.218 52.218,52.218 S119.18808636474608,264.4985537648201 119.18808636474608,235.7065537648201 zM108.48108636474609,235.7065537648201 c0,22.886 -18.619,41.505 -41.511,41.505 c-22.886,0 -41.505,-18.619 -41.505,-41.505 c0,-18.76 12.674,-35.232 30.823,-40.058 l2.384,-0.6360000000000001 v-79.275 h16.601 v79.269 l2.384,0.6430000000000001 C95.81408636474609,200.4745537648201 108.48108636474609,216.9535537648201 108.48108636474609,235.7065537648201 zM69.02708636474608,208.0395537648201 c-0.99,-4.396 -5.411,-7.288 -9.917,-6.26 c-15.733,3.56 -26.723,17.32 -26.723,33.465 c0,4.569 3.721,8.291 8.291,8.291 s8.291,-3.721 8.291,-8.291 c0,-8.207 5.797,-15.482 13.798,-17.288 C67.2140863647461,216.9335537648201 70.02908636474609,212.4865537648201 69.02708636474608,208.0395537648201 z" id="svg_2"/>
</svg>