<svg viewBox="0 0 64 64" xmlns="http://www.w3.org/2000/svg" fill="#3581fe" width="61" height="45"><path d="m55.857 24.485-6-10c-.18-.3-.505-.485-.857-.485h-28c-.553 0-1 .447-1 1s.447 1 1 1h17v14h-7c-.553 0-1 .447-1 1s.447 1 1 1h23v2h-7c-.553 0-1 .447-1 1s.447 1 1 1h7v8h-4c0-3.309-2.691-6-6-6s-6 2.691-6 6h-12c0-3.309-2.691-6-6-6s-6 2.691-6 6h-4v-12h15c.553 0 1-.447 1-1s-.447-1-1-1h-15v-6h21c.553 0 1-.447 1-1s-.447-1-1-1h-21v-6h5c.553 0 1-.447 1-1s-.447-1-1-1h-6c-.553 0-1 .447-1 1v30c0 .553.447 1 1 1h5.35c.827 2.326 3.044 4 5.65 4s4.823-1.674 5.65-4h12.7c.827 2.326 3.044 4 5.65 4s4.823-1.674 5.65-4h5.35c.553 0 1-.447 1-1v-20c0-.182-.049-.359-.143-.515zm-35.857 23.515c-2.206 0-4-1.794-4-4s1.794-4 4-4 4 1.794 4 4-1.794 4-4 4zm24 0c-2.206 0-4-1.794-4-4s1.794-4 4-4 4 1.794 4 4-1.794 4-4 4zm-4-18v-14h8.434l5.566 9.277v4.723z"/><circle cx="20" cy="44" r="2"/><circle cx="44" cy="44" r="2"/><circle cx="35" cy="23" r="1"/><circle cx="18" cy="15" r="1"/></svg>