<svg xmlns="http://www.w3.org/2000/svg" viewBox="0 0 42.17 42.17">
  <rect width="12.17" height="12.17" rx="1.92" />
  <rect y="15" width="12.17" height="12.17" rx="1.92" />
  <rect y="30" width="12.17" height="12.17" rx="1.92" />
  <path d="M330.75-244.33H307.42a1.91,1.91,0,0,0-1.92,1.91v8.34a1.91,1.91,0,0,0,1.92,1.91h23.33a1.91,1.91,0,0,0,1.92-1.91v-8.34A1.91,1.91,0,0,0,330.75-244.33Z"
    transform="translate(-290.5 244.33)" />
  <path d="M330.75-229.33H307.42a1.91,1.91,0,0,0-1.92,1.91v8.34a1.91,1.91,0,0,0,1.92,1.91h23.33a1.91,1.91,0,0,0,1.92-1.91v-8.34A1.91,1.91,0,0,0,330.75-229.33Z"
    transform="translate(-290.5 244.33)" />
  <path d="M330.75-214.33H307.42a1.91,1.91,0,0,0-1.92,1.91v8.34a1.91,1.91,0,0,0,1.92,1.91h23.33a1.91,1.91,0,0,0,1.92-1.91v-8.34A1.91,1.91,0,0,0,330.75-214.33Z"
    transform="translate(-290.5 244.33)" />
</svg>