<svg xmlns="http://www.w3.org/2000/svg" xmlns:xlink="http://www.w3.org/1999/xlink"><defs><style>.cls-1{fill:#3acc45}</style><style>.cls-1{fill:#3acc45}</style></defs><symbol id="icon-question" viewBox="0 0 16.94 16.969"><path d="M8.47-.01a8.493 8.493 0 108.47 8.493A8.482 8.482 0 008.47-.01zm.74 12.6a.261.261 0 01-.09.2.308.308 0 01-.21.08h-.78a.275.275 0 01-.21-.08.253.253 0 01-.08-.2v-.719a.273.273 0 01.08-.211.266.266 0 01.21-.087h.78a.3.3 0 01.21.087.282.282 0 01.09.211v.717zm1.84-5.231a7.174 7.174 0 01-.86 1.064 7.318 7.318 0 00-.72.859 1.677 1.677 0 00-.28.785c-.01.231-.02.4-.02.52a.315.315 0 01-.32.3h-.61a.279.279 0 01-.2-.074.268.268 0 01-.08-.2v-.507a2.228 2.228 0 01.35-1.137 7.338 7.338 0 01.91-1.076 8.253 8.253 0 00.67-.754 1.32 1.32 0 00.26-.643.666.666 0 00.01-.161 1.034 1.034 0 00-.49-.9 1.994 1.994 0 00-1.14-.333 1.838 1.838 0 00-1.17.364 1.736 1.736 0 00-.61 1.144.309.309 0 01-.33.272h-.55a.3.3 0 01-.2-.074.269.269 0 01-.08-.2 2.451 2.451 0 01.4-1.255 2.546 2.546 0 011.04-.915 3.376 3.376 0 011.54-.34 3.464 3.464 0 011.54.309 2.15 2.15 0 01.93.81 2.1 2.1 0 01.01 2.14z"/></symbol><symbol id="icon-wallet" viewBox="0 0 28 24"><path data-name="&#x424;&#x438;&#x433;&#x443;&#x440;&#x430; 1" d="M26 7.182V3a3 3 0 00-3-3H3a3 3 0 00-3 3v18a3 3 0 003 3h20a3 3 0 003-3v-4.183a2.994 2.994 0 002-2.816v-4a3 3 0 00-2-2.819zM23 22H3a1 1 0 01-1-1V3a1 1 0 011-1h20a1 1 0 011 1v4h-6a3 3 0 00-3 3v4a3 3 0 003 3h6v4a1 1 0 01-1 1zm3-8a1 1 0 01-1 1h-7a1 1 0 01-1-1v-4a1 1 0 011-1h7a1 1 0 011 1v4zm-8-2l2 2 2-2-2-2z" fill="#1bc748" fill-rule="evenodd"/></symbol><symbol id="Icons_Card"><path fill-rule="evenodd" fill="#1BC748" d="M25.999 22.819V27a2.996 2.996 0 01-3 2.999h-20c-1.659 0-3-1.34-3-2.999V10.999c0-.89.381-1.69 1-2.23v-5.77c0-1.65 1.35-3 3-3H22a3.009 3.009 0 012.999 3v5.77c.62.54 1 1.34 1 2.23v4.18c1.16.42 2 1.521 2 2.821v2c0 1.3-.84 2.4-2 2.819zM1.999 27c0 .55.451.999 1 .999h20c.55 0 1.001-.449 1.001-.999v-4.001h-6.001c-1.66 0-3-1.339-3-2.999v-2c0-.351.061-.691.18-1.001H3.999a2.98 2.98 0 01-2-.77V27zm21-24.001c0-.55-.45-1-.999-1H3.999c-.55 0-1 .45-1 1v1h20v-1zm0 7.001V7h-20v6.999c0 .55.45 1 1 1H22c.549 0 .999-.45.999-1V10zm3 8c0-.55-.45-1.001-1-1.001h-7c-.55 0-.999.451-.999 1.001v2c0 .549.449 1 .999 1h7c.55 0 1-.451 1-1v-2zm-20.5-5.001a1.5 1.5 0 110-3 1.5 1.5 0 010 3z"/></symbol><symbol id="Icons_Close"><path fill-rule="evenodd" fill="#D4D4D4" d="M16.937 2.295L15.544.901 8.922 7.522 2.302.901.908 2.295l6.621 6.62-6.621 6.621 1.394 1.394 6.62-6.621 6.622 6.621 1.393-1.394-6.621-6.621 6.621-6.62z"/></symbol><symbol id="Icons_Logo" viewBox="0 0 117 43"><path class="cls-1" d="M45.35 2.14v34a6.13 6.13 0 01-6 6.31h-5.84V29.61l-5.31 9.66a5.8 5.8 0 01-8.2 1.84 6.28 6.28 0 01-2-2.48A6.51 6.51 0 0118 33l5.23-9.58L34 4l.68-1.2a2.06 2.06 0 01.53-.64A5.3 5.3 0 0139.05.47h4.78a1.58 1.58 0 011.52 1.67z"/><path d="M18 32.44a5.92 5.92 0 000 5.49L1.13 9.16l10.66-6.11L23.47 23z" opacity=".3"/><path class="cls-1" d="M6.81 15.47H2a1.65 1.65 0 00-1.65 1.66v19.08a6.14 6.14 0 006.07 6.26h5.93V21.09a5.58 5.58 0 00-5.54-5.62zm.54-15H.93A.55.55 0 00.35 1v5.26a6.36 6.36 0 006.58 6.2h5.83a.56.56 0 00.59-.55v-5.8a5.8 5.8 0 00-6-5.64zm42.07 27.58a15.45 15.45 0 011.51-7.13 11 11 0 014.31-4.86 12.38 12.38 0 016.65-1.64A11.54 11.54 0 0171 18.18c2.27 2.5 3.33 5.87 3.33 10.18v.32c0 4.15-1.14 7.52-3.33 10a11.75 11.75 0 01-9.13 3.68A12 12 0 0153 38.87a13.48 13.48 0 01-3.62-9.33v-1.49zm8.08.55a10.29 10.29 0 001.14 5.49A3.61 3.61 0 0062 35.81c2.87 0 4.38-2.27 4.38-6.9v-.86c0-4.78-1.51-7.21-4.45-7.21-2.72 0-4.16 2.12-4.39 6.27zm29.15-12.1l.17 1.6a9.23 9.23 0 017.9-3.68c2.9 0 5 .88 6.45 2.56s2.18 4.25 2.18 7.69v17.15a.55.55 0 01-.57.57h-1.69a6.32 6.32 0 01-6.37-6.34v-11a4.44 4.44 0 00-.81-3 4 4 0 00-3.06-1 4.09 4.09 0 00-3.79 2V40.7a1.79 1.79 0 01-1.78 1.77h-5.16a1.79 1.79 0 01-1.77-1.77v-24a1.78 1.78 0 011.77-1.76h4.76a1.7 1.7 0 011.77 1.56zM110.35.47h-7v5.72a6.36 6.36 0 006.58 6.19h6.42V6.11a5.8 5.8 0 00-6-5.64zm-1.25 42h5.5a1.72 1.72 0 001.75-1.65V17.11a1.71 1.71 0 00-1.75-1.64h-5.5a1.7 1.7 0 00-1.75 1.64v23.71a1.77 1.77 0 001.75 1.65z"/></symbol><symbol id="Icons_Marker" viewBox="0 0 22 32"><path d="M22 11a11 11 0 10-17.72 8.7A14.86 14.86 0 0110 31.46V32h2v-.54a15.45 15.45 0 015.94-11.93A11 11 0 0022 11z" fill="#ea2606"/><path fill="#fff" d="M11 6l1.54 3.29 3.46.53-2.5 2.56.59 3.62L11 14.29 7.91 16l.59-3.62L6 9.82l3.46-.53L11 6z"/></symbol><symbol id="Icons_Menu-Hover" viewBox="0 0 21 14"><path d="M0 0h21v2H0zm10 6h11v2H10zM0 12h21v2H0z" fill="#1bc849"/></symbol><symbol id="Icons_Menu" viewBox="0 0 21 14"><path d="M0 0h21v2H0zm0 6h21v2H0zm0 6h21v2H0z" fill="#1bc849"/></symbol><symbol id="Icons_Passport" viewBox="0 0 29 30"><path class="cls-1" d="M21 2a1 1 0 011 1v24a1 1 0 01-1 1H3a1 1 0 01-1-1V3a1 1 0 011-1h18m0-2H3a3 3 0 00-3 3v24a3 3 0 003 3h18a3 3 0 003-3V3a3 3 0 00-3-3z"/><path class="cls-1" d="M20 7.09L15.83 12v1.14a1.44 1.44 0 01-.58 1.17l-.47.34h-.35v-1.51a.36.36 0 00-.34-.38h-.35l.26-1.23 1.81-.28v-.76a.37.37 0 00-.35-.38h-.35a.37.37 0 00-.35-.37h-1.37l-1.39 3-1.39-3H9.22a.37.37 0 00-.35.37h-.35a.37.37 0 00-.35.38v.76l1.81.28.28 1.23h-.35a.36.36 0 00-.34.38v1.52h-.35l-.47-.34a1.44 1.44 0 01-.58-1.17V12L4 7.09A6.07 6.07 0 005.42 11L4 10.49v2.27a4.38 4.38 0 004.17 4.55l.63-1.59.42 1.59h.35v.75c0 .14-.7.38-.7.38a.74.74 0 00-.7.76v.8H6.75l-1.92-2.13-.49.53 1.82 2a.72.72 0 00-.07.33h.38L8 22.42l.5-.53-1.05-1.18h.72a.73.73 0 00.7-.75h.7a.73.73 0 00.69-.76l1-.38-2.05 3a3.67 3.67 0 005.5 0l-2.05-3 1 .38a.73.73 0 00.69.76h.7a.73.73 0 00.7.75h1.39a.68.68 0 00.64-.47.93.93 0 00.24 0A1.17 1.17 0 1017 19.1a1.22 1.22 0 00.37.86h-1.54v-.76a.74.74 0 00-.7-.76s-.7-.24-.7-.38v-.75h.35l.42-1.59.63 1.59A4.38 4.38 0 0020 12.76v-2.27l-1.42.51A6.07 6.07 0 0020 7.09z"/></symbol><symbol id="Icons_PDF" viewBox="0 0 21 14"><path class="cls-1" d="M4.71 4.82H3.47V6.9h1.24a.94.94 0 001-1 1.09 1.09 0 00-.26-.77 1 1 0 00-.74-.31zm6.58.4a1.41 1.41 0 00-1.07-.36H9.17v4.45h1.1a1.34 1.34 0 001-.35 1.78 1.78 0 00.33-1.17V6.37a1.7 1.7 0 00-.31-1.15z"/><path class="cls-1" d="M18.23 1.09h-16a2 2 0 00-2 2v8a2 2 0 002 2h16a2 2 0 002-2v-8a2 2 0 00-2-2zM6.4 7.43A2.33 2.33 0 014.76 8H3.48v2.23a.24.24 0 01-.06.17.2.2 0 01-.15.06h-.83a.18.18 0 01-.15-.07.23.23 0 01-.06-.16V4a.29.29 0 010-.17.19.19 0 01.16-.07h2.37a2.29 2.29 0 011.64.54A2 2 0 017 5.88a2 2 0 01-.6 1.55zm6.48.39a2.9 2.9 0 01-.66 2 2.57 2.57 0 01-1.91.63H8.15a.17.17 0 01-.15-.1.23.23 0 010-.16V4a.23.23 0 010-.17.18.18 0 01.15-.07h2.12a2.33 2.33 0 012.61 2.59v.75c0 .13.01.35 0 .72zm5.35-3.14a.25.25 0 01-.06.16.21.21 0 01-.17.06h-2.76v1.8h2.6a.2.2 0 01.15.06.26.26 0 01.07.16v.69a.24.24 0 01-.07.16.18.18 0 01-.15.07h-2.6v2.35a.23.23 0 01-.06.16.19.19 0 01-.16.07h-.78a.17.17 0 01-.14-.07.23.23 0 01-.06-.16V4a.23.23 0 01.05-.17.18.18 0 01.15-.07H18a.19.19 0 01.16.07.24.24 0 01.06.17z"/></symbol><symbol id="Icons_Phone" viewBox="0 0 29 30"><path class="cls-1" d="M21 0H3a3 3 0 00-3 3v24a3 3 0 003 3h18a3 3 0 003-3V3a3 3 0 00-3-3zm1 27a1 1 0 01-1 1H3a1 1 0 01-1-1V3a1 1 0 011-1h4v2a1 1 0 001 1h8a1 1 0 001-1V2h4a1 1 0 011 1z"/><path class="cls-1" d="M2.817 15.271l4.95-4.95 1.414 1.415-4.95 4.95zm6.003-.003l4.949-4.95 1.414 1.415-4.95 4.95zm6.002-.002l4.95-4.95 1.414 1.414-4.95 4.95zM8 23h8v3H8z"/></symbol><symbol id="Icons_Star" viewBox="0 0 16 16"><path fill="#ea2606" d="M8.23 1.09l2.16 4.6 4.84.74-3.5 3.59.82 5.07-4.32-2.4-4.33 2.4.83-5.07-3.5-3.59 4.84-.74 2.16-4.6z"/></symbol></svg>