<svg width="33" height="36" viewBox="0 0 33 36" fill="none" xmlns="http://www.w3.org/2000/svg"><path d="M31.243.485a.654.654 0 00-1.208-.134c0 .018-3.296 6.455-13.414 7.577a12.79 12.79 0 00-3.825 1.028 10.652 10.652 0 00-5.1 4.704A11.117 11.117 0 006.44 20.1a10.873 10.873 0 001.575 4.567C6.218 25.966.518 30.457.004 35.277a.654.654 0 00.578.72.652.652 0 00.716-.583c.47-4.303 5.819-8.475 7.487-9.683 2.002 2.475 5 3.872 8.217 4.1a13.81 13.81 0 006.33-1.086 14.527 14.527 0 005.578-4.172c3.857-4.704 5.693-12.61 2.333-24.088zM9.159 24.02a9.433 9.433 0 01-.655-1.23 9.604 9.604 0 01-.754-2.83 9.796 9.796 0 011.078-5.68 9.37 9.37 0 014.493-4.136 11.513 11.513 0 013.443-.909c6.679-.723 10.608-3.716 12.635-5.887a27.794 27.794 0 01-6.003 10.628l-.395-4.01a.652.652 0 00-.686-.617.653.653 0 00-.608.744l.507 5.153c-3.023 3.086-7.225 6.187-13.055 8.774zm18.745-.285v.003a13.225 13.225 0 01-5.076 3.814 12.505 12.505 0 01-5.75.97 10.257 10.257 0 01-7.136-3.427 48.882 48.882 0 006.204-3.318l5.712 1.085a.655.655 0 00.234-1.288l-4.39-.836a37.998 37.998 0 005.72-4.855c4.535-4.755 6.466-9.46 7.27-12.354 2.222 9.538.522 16.175-2.788 20.206z" fill="#F8C307"/></svg>