<svg xmlns="http://www.w3.org/2000/svg" xmlns:xlink="http://www.w3.org/1999/xlink"><defs><linearGradient id="paint0_linear" x1="10" y1="19.942" x2="10" y2=".155" gradientUnits="userSpaceOnUse"><stop stop-color="#E09B3D"/><stop offset=".3" stop-color="#C74C4D"/><stop offset=".6" stop-color="#C21975"/><stop offset="1" stop-color="#7024C4"/></linearGradient><linearGradient id="paint1_linear" x1="10" y1="19.942" x2="10" y2=".155" gradientUnits="userSpaceOnUse"><stop stop-color="#E09B3D"/><stop offset=".3" stop-color="#C74C4D"/><stop offset=".6" stop-color="#C21975"/><stop offset="1" stop-color="#7024C4"/></linearGradient><linearGradient id="paint2_linear" x1="15.183" y1="19.942" x2="15.183" y2=".156" gradientUnits="userSpaceOnUse"><stop stop-color="#E09B3D"/><stop offset=".3" stop-color="#C74C4D"/><stop offset=".6" stop-color="#C21975"/><stop offset="1" stop-color="#7024C4"/></linearGradient></defs><symbol id="icon-arrow" viewBox="0 0 9 14"><path d="M8.002 6.454L1.772.224A.76.76 0 001.23 0a.76.76 0 00-.542.224L.23.682a.767.767 0 000 1.083l5.232 5.232-5.237 5.238a.76.76 0 00-.224.541c0 .205.08.397.224.542l.458.458a.76.76 0 00.542.224.76.76 0 00.542-.224l6.236-6.235a.761.761 0 00.223-.544.762.762 0 00-.223-.543z"/></symbol><symbol id="icon-clock" viewBox="0 0 19 19"><path d="M9.5 0a9.5 9.5 0 100 19 9.5 9.5 0 000-19zm4.107 11.307H9.579c-.013 0-.026-.004-.04-.004-.013 0-.026.004-.04.004-.362 0-.714-.352-.714-.715V4c0-.363.352-.715.715-.715s.657.352.657.715v5.993h3.45a.657.657 0 010 1.314z" fill="#E31D24"/></symbol><symbol id="icon-insta" viewBox="0 0 20 20"><path d="M14.042 0H5.958A5.965 5.965 0 000 5.958v8.084A5.965 5.965 0 005.958 20h8.084A5.965 5.965 0 0020 14.042V5.958A5.965 5.965 0 0014.042 0zm3.946 14.042a3.946 3.946 0 01-3.946 3.946H5.958a3.946 3.946 0 01-3.946-3.946V5.958a3.946 3.946 0 013.946-3.946h8.084a3.946 3.946 0 013.946 3.946v8.084z" fill="url(#paint0_linear)"/><path d="M10 4.827A5.179 5.179 0 004.827 10 5.179 5.179 0 0010 15.172 5.179 5.179 0 0015.173 10 5.179 5.179 0 0010 4.827zm0 8.334a3.16 3.16 0 110-6.322 3.16 3.16 0 010 6.322z" fill="url(#paint1_linear)"/><path d="M15.183 6.106a1.24 1.24 0 100-2.479 1.24 1.24 0 000 2.479z" fill="url(#paint2_linear)"/></symbol><symbol id="icon-link" viewBox="0 0 18 18"><path d="M17.182 0h-6.546a.818.818 0 000 1.636h4.57l-8.42 8.422a.818.818 0 101.156 1.157l8.422-8.422v4.57a.818.818 0 101.636 0V.819A.818.818 0 0017.182 0z"/><path d="M13.91 8.182a.818.818 0 00-.82.818v7.364H1.637V4.909H9a.818.818 0 000-1.636H.818A.818.818 0 000 4.09v13.09c0 .453.366.819.818.819H13.91a.818.818 0 00.818-.818V9a.818.818 0 00-.818-.818z"/></symbol><symbol id="icon-message" viewBox="0 0 15 12"><path d="M12.974 1H2.154C1.518 1 1 1.518 1 2.154v7.692C1 10.48 1.516 11 2.154 11h10.82c.634 0 1.154-.516 1.154-1.154V2.154c0-.634-.516-1.154-1.154-1.154zm-.159.77L7.589 6.995 2.317 1.769h10.498zM1.769 9.686V2.309l3.705 3.673-3.705 3.705zm.544.544L6.02 6.524l1.3 1.288c.15.149.393.148.543-.002l1.266-1.266 3.687 3.687H2.313zm11.046-.544L9.672 6l3.687-3.687v7.374z" fill="#F8C307" stroke="#FECD0D" stroke-width=".5"/></symbol><symbol id="icon-pdf" viewBox="0 0 16 18"><path d="M16 6.328h-1.212v-1.8L10.328 0H1.212v6.328H0v9h1.212V18h13.576v-2.672H16v-9zm-5.368-4.527l2.382 2.418h-2.382V1.8zm-8.38-.746h7.341v4.218h4.156v1.055H2.25V1.055zm11.497 15.89H2.25v-1.617h11.5v1.617zm1.212-2.672H1.039v-6.89h13.922v6.89z"/><path d="M3.567 11.707h.502c.87 0 1.576-.718 1.576-1.6 0-.882-.707-1.6-1.576-1.6H2.53v4.782h1.038v-1.582zm0-2.145h.502c.296 0 .537.245.537.545 0 .3-.24.545-.537.545h-.502v-1.09zM9.8 11.18v-.563c0-1.163-.931-2.11-2.077-2.11H6.684v4.782h1.039c1.146 0 2.078-.946 2.078-2.11zM7.724 9.563c.573 0 1.039.473 1.039 1.054v.563c0 .581-.466 1.054-1.04 1.054V9.563zm4.224 2.267h1.039v-1.055h-1.039V9.562h1.559V8.508h-2.598v4.781h1.04V11.83z"/></symbol><symbol id="icon-phone-2" viewBox="0 0 19 18"><path d="M17.636 14.237l-2.786-2.786c-.555-.553-1.474-.536-2.048.038l-1.404 1.404-.277-.155c-.886-.49-2.1-1.164-3.376-2.441-1.28-1.28-1.954-2.496-2.447-3.383-.052-.094-.101-.184-.15-.27l.941-.94.464-.465c.575-.575.59-1.494.037-2.048L3.804.404C3.25-.149 2.33-.132 1.756.443l-.786.79.022.02a4.54 4.54 0 00-.647 1.142 4.729 4.729 0 00-.288 1.158c-.368 3.05 1.026 5.837 4.808 9.62 5.228 5.227 9.442 4.833 9.624 4.813a4.71 4.71 0 001.16-.291 4.53 4.53 0 001.138-.645l.017.015.795-.778c.574-.576.59-1.495.037-2.05z" fill="#E31D24"/></symbol><symbol id="icon-phone" viewBox="0 0 7 9"><path d="M7 7.591a.407.407 0 01-.172.325l-1.278.938a.609.609 0 01-.217.111.766.766 0 01-.403.014 3.668 3.668 0 01-.493-.15 3.802 3.802 0 01-.805-.435 7.33 7.33 0 01-1.03-.873c-.376-.373-.762-.861-1.156-1.463A9.736 9.736 0 01.688 4.74a8.525 8.525 0 01-.437-1.12 5.771 5.771 0 01-.203-.902A4.77 4.77 0 010 2.04a2.294 2.294 0 01.076-.606.872.872 0 01.115-.232.64.64 0 01.173-.178l1.28-.947a.35.35 0 01.281-.072c.071.013.13.046.177.1a.616.616 0 01.113.186l.582 1.917a.45.45 0 01-.01.31.544.544 0 01-.185.251l-.471.35a.145.145 0 00-.038.05.224.224 0 00-.023.063c.001.125.027.272.078.442.042.15.115.338.218.562.103.224.258.49.466.795.2.311.384.558.55.74.167.183.308.32.425.413.117.093.208.154.273.18l.1.041c.01.002.028.001.054-.003a.134.134 0 00.059-.02l.55-.415a.486.486 0 01.366-.074.422.422 0 01.212.093l.008.001 1.414 1.28A.45.45 0 017 7.59z" fill="#F8C307"/></symbol><symbol id="icon-pin" viewBox="0 0 15 20"><path d="M7.363 0C3.303 0 0 3.303 0 7.363c0 1.06.217 2.07.644 3.006 1.84 4.028 5.37 8.281 6.409 9.489a.41.41 0 00.62 0c1.038-1.207 4.568-5.46 6.41-9.49a7.179 7.179 0 00.643-3.005C14.726 3.303 11.423 0 7.363 0zm0 11.188a3.83 3.83 0 01-3.825-3.825 3.83 3.83 0 013.825-3.825 3.83 3.83 0 013.825 3.825 3.829 3.829 0 01-3.825 3.825z" fill="#E31D24"/></symbol><symbol id="icon-star" viewBox="0 0 20 19"><path d="M9.552.907a.5.5 0 01.896 0l2.526 5.112a.5.5 0 00.376.273l5.647.82a.5.5 0 01.276.853l-4.085 3.977a.5.5 0 00-.144.443l.965 5.617a.5.5 0 01-.725.527l-5.052-2.652a.5.5 0 00-.464 0l-5.052 2.652a.5.5 0 01-.725-.527l.964-5.617a.5.5 0 00-.144-.443L.727 7.965a.5.5 0 01.277-.853l5.646-.82a.5.5 0 00.376-.273L9.552.907z"/></symbol><symbol id="icon-union" viewBox="0 0 36 35"><path clip-rule="evenodd" d="M34.974 3.064A1.795 1.795 0 0032.436.526L18 14.962 3.564.526a1.795 1.795 0 10-2.538 2.538L15.462 17.5 1.026 31.936a1.795 1.795 0 102.538 2.538L18 20.038l14.436 14.436a1.795 1.795 0 002.538-2.538L20.538 17.5 34.974 3.064z"/></symbol></svg>