<svg xmlns="http://www.w3.org/2000/svg" xmlns:xlink="http://www.w3.org/1999/xlink"><defs><linearGradient id="paint0_linear" x1="10" y1="19.942" x2="10" y2=".155" gradientUnits="userSpaceOnUse"><stop stop-color="#E09B3D"/><stop offset=".3" stop-color="#C74C4D"/><stop offset=".6" stop-color="#C21975"/><stop offset="1" stop-color="#7024C4"/></linearGradient><linearGradient id="paint1_linear" x1="10" y1="19.942" x2="10" y2=".155" gradientUnits="userSpaceOnUse"><stop stop-color="#E09B3D"/><stop offset=".3" stop-color="#C74C4D"/><stop offset=".6" stop-color="#C21975"/><stop offset="1" stop-color="#7024C4"/></linearGradient><linearGradient id="paint2_linear" x1="15.183" y1="19.942" x2="15.183" y2=".156" gradientUnits="userSpaceOnUse"><stop stop-color="#E09B3D"/><stop offset=".3" stop-color="#C74C4D"/><stop offset=".6" stop-color="#C21975"/><stop offset="1" stop-color="#7024C4"/></linearGradient></defs><symbol id="icon-arrow" viewBox="0 0 9 14"><path d="M8.002 6.454L1.772.224A.76.76 0 001.23 0a.76.76 0 00-.542.224L.23.682a.767.767 0 000 1.083l5.232 5.232-5.237 5.238a.76.76 0 00-.224.541c0 .205.08.397.224.542l.458.458a.76.76 0 00.542.224.76.76 0 00.542-.224l6.236-6.235a.761.761 0 00.223-.544.762.762 0 00-.223-.543z"/></symbol><symbol id="icon-insta" viewBox="0 0 20 20"><path d="M14.042 0H5.958A5.965 5.965 0 000 5.958v8.084A5.965 5.965 0 005.958 20h8.084A5.965 5.965 0 0020 14.042V5.958A5.965 5.965 0 0014.042 0zm3.946 14.042a3.946 3.946 0 01-3.946 3.946H5.958a3.946 3.946 0 01-3.946-3.946V5.958a3.946 3.946 0 013.946-3.946h8.084a3.946 3.946 0 013.946 3.946v8.084z" fill="url(#paint0_linear)"/><path d="M10 4.827A5.179 5.179 0 004.827 10 5.179 5.179 0 0010 15.172 5.179 5.179 0 0015.173 10 5.179 5.179 0 0010 4.827zm0 8.334a3.16 3.16 0 110-6.322 3.16 3.16 0 010 6.322z" fill="url(#paint1_linear)"/><path d="M15.183 6.106a1.24 1.24 0 100-2.479 1.24 1.24 0 000 2.479z" fill="url(#paint2_linear)"/></symbol><symbol id="icon-message" viewBox="0 0 15 12"><path d="M12.974 1H2.154C1.518 1 1 1.518 1 2.154v7.692C1 10.48 1.516 11 2.154 11h10.82c.634 0 1.154-.516 1.154-1.154V2.154c0-.634-.516-1.154-1.154-1.154zm-.159.77L7.589 6.995 2.317 1.769h10.498zM1.769 9.686V2.309l3.705 3.673-3.705 3.705zm.544.544L6.02 6.524l1.3 1.288c.15.149.393.148.543-.002l1.266-1.266 3.687 3.687H2.313zm11.046-.544L9.672 6l3.687-3.687v7.374z" fill="#F8C307" stroke="#FECD0D" stroke-width=".5"/></symbol><symbol id="icon-phone" viewBox="0 0 7 9"><path d="M7 7.591a.407.407 0 01-.172.325l-1.278.938a.609.609 0 01-.217.111.766.766 0 01-.403.014 3.668 3.668 0 01-.493-.15 3.802 3.802 0 01-.805-.435 7.33 7.33 0 01-1.03-.873c-.376-.373-.762-.861-1.156-1.463A9.736 9.736 0 01.688 4.74a8.525 8.525 0 01-.437-1.12 5.771 5.771 0 01-.203-.902A4.77 4.77 0 010 2.04a2.294 2.294 0 01.076-.606.872.872 0 01.115-.232.64.64 0 01.173-.178l1.28-.947a.35.35 0 01.281-.072c.071.013.13.046.177.1a.616.616 0 01.113.186l.582 1.917a.45.45 0 01-.01.31.544.544 0 01-.185.251l-.471.35a.145.145 0 00-.038.05.224.224 0 00-.023.063c.001.125.027.272.078.442.042.15.115.338.218.562.103.224.258.49.466.795.2.311.384.558.55.74.167.183.308.32.425.413.117.093.208.154.273.18l.1.041c.01.002.028.001.054-.003a.134.134 0 00.059-.02l.55-.415a.486.486 0 01.366-.074.422.422 0 01.212.093l.008.001 1.414 1.28A.45.45 0 017 7.59z" fill="#F8C307"/></symbol><symbol id="icon-union" viewBox="0 0 36 35"><path clip-rule="evenodd" d="M34.974 3.064A1.795 1.795 0 0032.436.526L18 14.962 3.564.526a1.795 1.795 0 10-2.538 2.538L15.462 17.5 1.026 31.936a1.795 1.795 0 102.538 2.538L18 20.038l14.436 14.436a1.795 1.795 0 002.538-2.538L20.538 17.5 34.974 3.064z"/></symbol></svg>