<svg width="36" height="36" viewBox="0 0 36 36" fill="none" xmlns="http://www.w3.org/2000/svg"><path d="M18 0C8.074 0 0 8.075 0 18s8.074 18 18 18 18-8.075 18-18S27.926 0 18 0zm0 34.5C8.902 34.5 1.5 27.098 1.5 18c0-4.28 1.651-8.171 4.333-11.106l8.436 8.436-4.857 8.5a3.119 3.119 0 002.708 4.67h11.76c.972 0 1.83-.456 2.404-1.156l2.822 2.823C26.171 32.848 22.28 34.5 18 34.5zm1.598-19.878L21.528 18h-2.467l-2.92-2.92.26-.458a.754.754 0 00.099-.372V9h3v5.25c0 .13.034.259.098.372zm2.788 4.878l2.436 4.26-4.261-4.26h1.825zM16.94 18h-2.467l.897-1.57L16.94 18zm1.5 1.5l6.763 6.763c-.29.433-.762.737-1.322.737H12.12a1.622 1.622 0 01-1.406-2.424l2.9-5.076h4.825zm11.728 9.606l-3.219-3.218a3.06 3.06 0 00.052-.509c0-.543-.142-1.078-.41-1.547L21 14.05V9a.75.75 0 100-1.5h-6A.75.75 0 1015 9v4.94L6.894 5.833C9.829 3.152 13.72 1.5 18 1.5c9.098 0 16.5 7.402 16.5 16.5 0 4.28-1.651 8.171-4.333 11.106z" fill="#F8C307"/></svg>