<svg width="15" height="12" viewBox="0 0 15 12" fill="none" xmlns="http://www.w3.org/2000/svg"><path d="M12.974 1H2.154C1.518 1 1 1.518 1 2.154v7.692C1 10.48 1.516 11 2.154 11h10.82c.634 0 1.154-.516 1.154-1.154V2.154c0-.634-.516-1.154-1.154-1.154zm-.159.77L7.589 6.995 2.317 1.769h10.498zM1.769 9.686V2.309l3.705 3.673-3.705 3.705zm.544.544L6.02 6.524l1.3 1.288c.15.149.393.148.543-.002l1.266-1.266 3.687 3.687H2.313zm11.046-.544L9.672 6l3.687-3.687v7.374z" fill="#F8C307" stroke="#FECD0D" stroke-width=".5"/></svg>