<svg width="7" height="9" viewBox="0 0 7 9" fill="none" xmlns="http://www.w3.org/2000/svg"><path d="M7 7.591a.407.407 0 01-.172.325l-1.278.938a.609.609 0 01-.217.111.766.766 0 01-.403.014 3.668 3.668 0 01-.493-.15 3.802 3.802 0 01-.805-.435 7.33 7.33 0 01-1.03-.873c-.376-.373-.762-.861-1.156-1.463A9.736 9.736 0 01.688 4.74a8.525 8.525 0 01-.437-1.12 5.771 5.771 0 01-.203-.902A4.77 4.77 0 010 2.04a2.294 2.294 0 01.076-.606.872.872 0 01.115-.232.64.64 0 01.173-.178l1.28-.947a.35.35 0 01.281-.072c.071.013.13.046.177.1a.616.616 0 01.113.186l.582 1.917a.45.45 0 01-.01.31.544.544 0 01-.185.251l-.471.35a.145.145 0 00-.038.05.224.224 0 00-.023.063c.001.125.027.272.078.442.042.15.115.338.218.562.103.224.258.49.466.795.2.311.384.558.55.74.167.183.308.32.425.413.117.093.208.154.273.18l.1.041c.01.002.028.001.054-.003a.134.134 0 00.059-.02l.55-.415a.486.486 0 01.366-.074.422.422 0 01.212.093l.008.001 1.414 1.28A.45.45 0 017 7.59z" fill="#F8C307"/></svg>