<svg viewBox="0 -31 512 512" xmlns="http://www.w3.org/2000/svg" fill="#fff"><path d="M15 30h92c8.27 0 15 6.73 15 15 0 1.293-1.898-16.262 28.586 258.113C133.87 309.687 122 325.977 122 345c0 24.813 20.188 44.988 45 44.988h17.578A44.883 44.883 0 0 0 182 405c0 24.813 20.188 45 45 45s45-20.188 45-45c0-5.258-.914-10.316-2.578-15.012h95.16A44.787 44.787 0 0 0 362 405c0 24.813 20.188 45 45 45s45-20.188 45-45-20.187-45-45-45H167c-8.27 0-15-6.73-15-15s6.73-15 15-15h274.586c22.09 0 40.758-15.813 44.387-37.602l25.824-154.933A15 15 0 0 0 497 120h-45V45c0-8.285-6.715-15-15-15H317c-8.285 0-15 6.715-15 15v15h-75c-8.285 0-15 6.715-15 15v45h-51.574l-8.434-75.914C151.5 19.696 131.508 0 107 0H15C6.715 0 0 6.715 0 15s6.715 15 15 15zm227 375c0 8.27-6.73 15-15 15s-15-6.73-15-15 6.73-15.012 15-15.012 15 6.742 15 15.012zm165 15c-8.27 0-15-6.73-15-15 0-8.297 6.73-15 15-15s15 6.73 15 15-6.73 15-15 15zM332 60h90v60h-90zm-90 30h60v30h-60zm237.293 60l-22.91 137.465A14.952 14.952 0 0 1 441.586 300h-261.16l-16.668-150zm0 0"/><path d="M227 270c8.285 0 15-6.715 15-15v-60c0-8.285-6.715-15-15-15s-15 6.715-15 15v60c0 8.285 6.715 15 15 15zm90 0c8.285 0 15-6.715 15-15v-60c0-8.285-6.715-15-15-15s-15 6.715-15 15v60c0 8.285 6.715 15 15 15zm90 0c8.285 0 15-6.715 15-15v-60c0-8.285-6.715-15-15-15s-15 6.715-15 15v60c0 8.285 6.715 15 15 15zm0 0"/></svg>