<svg height="512" viewBox="0 0 60 60" width="512" xmlns="http://www.w3.org/2000/svg" fill="#d1d1d1"><path d="M30.03 16c-14.908 0-30-2.748-30-8s15.092-8 30-8 30 2.748 30 8-15.092 8-30 8zm0-14c-17.348 0-28 3.495-28 6s10.652 6 28 6 28-3.495 28-6-10.653-6-28-6z"/><path d="M24.03 60a.998.998 0 0 1-1-1V40.98a3.65 3.65 0 0 0-1.122-2.626L1.77 19.091A5.661 5.661 0 0 1 .03 15.02V8a1 1 0 0 1 2 0c0 2.505 10.652 6 28 6s28-3.495 28-6a1 1 0 0 1 2 0v7.02c0 1.53-.634 3.014-1.74 4.071L38.152 38.354a3.652 3.652 0 0 0-1.123 2.626V52c0 .355-.189.685-.496.864l-12 7a.993.993 0 0 1-.503.136zm-22-48.92v3.94a3.65 3.65 0 0 0 1.122 2.626L23.29 36.909a5.661 5.661 0 0 1 1.74 4.071v16.279l10-5.833V40.98c0-1.53.634-3.014 1.74-4.071l20.137-19.263a3.652 3.652 0 0 0 1.123-2.626v-3.94c-4.583 3.241-16.348 4.92-28 4.92s-23.418-1.679-28-4.92z"/></svg>