<svg enable-background="new 0 0 60 60" height="512" viewBox="0 0 60 60" width="512" xmlns="http://www.w3.org/2000/svg" fill="#d1d1d1"><path d="m30.03 16c-14.908 0-30-2.748-30-8s15.092-8 30-8 30 2.748 30 8-15.092 8-30 8zm0-14c-17.348 0-28 3.495-28 6s10.652 6 28 6 28-3.495 28-6-10.653-6-28-6z"/><path d="m24.03 60c-.172 0-.344-.044-.498-.133-.311-.178-.502-.509-.502-.867v-18.02c0-.987-.409-1.944-1.122-2.626l-20.138-19.263c-1.105-1.057-1.74-2.541-1.74-4.071v-7.02c0-.552.448-1 1-1s1 .448 1 1c0 2.505 10.652 6 28 6s28-3.495 28-6c0-.552.448-1 1-1s1 .448 1 1v7.02c0 1.53-.634 3.014-1.74 4.071l-20.138 19.263c-.713.682-1.123 1.639-1.123 2.626v11.02c0 .355-.189.685-.496.864l-12 7c-.155.091-.329.136-.503.136zm-22-48.92v3.94c0 .987.409 1.944 1.122 2.626l20.138 19.263c1.105 1.057 1.74 2.541 1.74 4.071v16.279l10-5.833v-10.446c0-1.53.634-3.014 1.74-4.071l20.137-19.263c.713-.682 1.123-1.639 1.123-2.626v-3.94c-4.583 3.241-16.348 4.92-28 4.92s-23.418-1.679-28-4.92z"/></svg>