<svg width="100" height="138" fill="none" xmlns="http://www.w3.org/2000/svg"><path fill-rule="evenodd" clip-rule="evenodd" d="M22.102 69 2.99 34.498C-5.504 19.166 5.113 0 22.1 0H77.9c16.987 0 27.604 19.166 19.11 34.498L77.899 69l19.113 34.502C105.504 118.835 94.887 138 77.9 138H22.1c-16.987 0-27.604-19.165-19.11-34.498L22.101 69Z" fill="url(#a)"/><path d="M63.302 58.539c-6.003 9.104-21.012 9.104-27.016 0l-19.72-29.907c-6.004-9.105 1.5-20.485 13.507-20.485h39.442c12.007 0 19.512 11.38 13.508 20.485l-19.72 29.907Z" fill="url(#b)"/><path d="M36.286 78.927c6.004-9.105 21.013-9.105 27.016 0l19.721 29.907c6.004 9.105-1.5 20.485-13.508 20.485H30.073c-12.007 0-19.511-11.381-13.508-20.485l19.721-29.907Z" fill="url(#c)"/><defs><linearGradient id="b" x1="46.39" y1="7.858" x2="46.519" y2="67.431" gradientUnits="userSpaceOnUse"><stop offset=".188" stop-color="#71D5F4"/><stop offset=".914" stop-color="#514DF4"/></linearGradient><linearGradient id="c" x1="53.198" y1="129.319" x2="53.07" y2="70.035" gradientUnits="userSpaceOnUse"><stop offset=".188" stop-color="#71D5F4"/><stop offset=".914" stop-color="#514DF4"/></linearGradient><radialGradient id="a" cx="0" cy="0" r="1" gradientUnits="userSpaceOnUse" gradientTransform="rotate(-88.48 70.516 18.468) scale(78.1781 50.2162)"><stop offset=".188" stop-color="#71D5F5" stop-opacity=".25"/><stop offset=".914" stop-color="#5869F5" stop-opacity="0"/></radialGradient></defs></svg>
